<svg width="24" height="24" viewBox="0 0 24 24" fill="none" xmlns="http://www.w3.org/2000/svg">
<path d="M13.4297 9.86719C12.8883 9.86719 12.4688 10.2867 12.4688 10.8047C12.4688 11.3227 12.8883 11.7422 13.4297 11.7422C13.9242 11.7422 14.3438 11.3227 14.3438 10.8047C14.3438 10.2867 13.9242 9.86719 13.4297 9.86719ZM6.86719 9.86719C6.32578 9.86719 5.90625 10.2867 5.90625 10.8047C5.90625 11.3227 6.32578 11.7422 6.86719 11.7422C7.36172 11.7422 7.78125 11.3227 7.78125 10.8047C7.78125 10.2867 7.36172 9.86719 6.86719 9.86719Z" fill="#6F717B"/>
<path d="M20.9528 8.08699C19.8255 6.54011 18.2505 5.50652 16.5231 5.04011V5.04245C16.1223 4.59714 15.67 4.18699 15.1637 3.82136C11.327 1.0323 5.94109 1.88308 3.14031 5.7198C0.883281 8.83699 0.979375 13.03 3.28094 16.0089L3.29969 19.1167C3.29969 19.1917 3.31141 19.2667 3.33484 19.337C3.45906 19.7331 3.88094 19.951 4.27469 19.8268L7.24187 18.8917C8.02703 19.1706 8.83797 19.33 9.64422 19.3745L9.6325 19.3839C11.7208 20.905 14.4583 21.362 16.9684 20.5323L19.9473 21.5026C20.0223 21.526 20.0997 21.5401 20.1794 21.5401C20.5942 21.5401 20.9294 21.205 20.9294 20.7901V17.6495C22.9942 14.8464 23.0481 10.9721 20.9528 8.08699ZM7.57 17.2276L7.28875 17.1104L4.96844 17.837L4.945 15.3995L4.7575 15.1885C2.77469 12.7698 2.64344 9.28464 4.49969 6.72761C6.75906 3.62917 11.0903 2.9448 14.1794 5.18074C17.2778 7.43308 17.9645 11.7573 15.7262 14.837C13.8489 17.4128 10.488 18.3643 7.57 17.2276ZM19.4059 16.8292L19.2184 17.0635L19.2419 19.501L16.945 18.7276L16.6637 18.8448C15.3512 19.3323 13.952 19.3721 12.6559 19.0089L12.6512 19.0065C14.3833 18.4745 15.9536 17.3964 17.0856 15.8448C18.8762 13.3768 19.1669 10.276 18.1262 7.6323L18.1403 7.64167C18.6794 8.02839 19.1739 8.5112 19.5934 9.0948C21.295 11.4292 21.1989 14.6073 19.4059 16.8292Z" fill="#6F717B"/>
<path d="M10.1484 9.86719C9.60703 9.86719 9.1875 10.2867 9.1875 10.8047C9.1875 11.3227 9.60703 11.7422 10.1484 11.7422C10.643 11.7422 11.0625 11.3227 11.0625 10.8047C11.0625 10.2867 10.643 9.86719 10.1484 9.86719Z" fill="#6F717B"/>
</svg>
