<svg width="24" height="24" viewBox="0 0 24 24" fill="none" xmlns="http://www.w3.org/2000/svg">
<path d="M12.0022 21.0022C16.9728 21.0022 21.0022 16.9728 21.0022 12.0022C21.0022 7.03163 16.9728 3.0022 12.0022 3.0022C7.03163 3.0022 3.0022 7.03163 3.0022 12.0022C3.0022 16.9728 7.03163 21.0022 12.0022 21.0022Z" stroke="#202026" stroke-width="1.5" stroke-linecap="round" stroke-linejoin="round"/>
<path d="M8.62695 11.2495C9.24827 11.2495 9.75195 10.7458 9.75195 10.1245C9.75195 9.50319 9.24827 8.99951 8.62695 8.99951C8.00563 8.99951 7.50195 9.50319 7.50195 10.1245C7.50195 10.7458 8.00563 11.2495 8.62695 11.2495Z" fill="#202026"/>
<path d="M15.3766 11.2495C15.998 11.2495 16.5016 10.7458 16.5016 10.1245C16.5016 9.50319 15.998 8.99951 15.3766 8.99951C14.7553 8.99951 14.2516 9.50319 14.2516 10.1245C14.2516 10.7458 14.7553 11.2495 15.3766 11.2495Z" fill="#202026"/>
<path d="M15.901 14.2517C15.5045 14.9348 14.9356 15.5017 14.2512 15.8958C13.5667 16.2899 12.7908 16.4974 12.001 16.4974C11.2112 16.4974 10.4353 16.2899 9.75085 15.8958C9.06642 15.5017 8.49749 14.9348 8.10101 14.2517" stroke="#202026" stroke-width="1.5" stroke-linecap="round" stroke-linejoin="round"/>
</svg>
