<svg width="24" height="24" viewBox="0 0 24 24" fill="none" xmlns="http://www.w3.org/2000/svg">
<g clip-path="url(#clip0_2653_26762)">
<rect x="1" y="1" width="22" height="22" rx="4" fill="white" stroke="#DEDEDE"/>
<path d="M2.97656 16V8.92969H7.72266V10.1406H4.44141V11.8594H7.47852V13.0703H4.44141V14.7891H7.73242V16H2.97656ZM8.5918 10.1406V8.92969H14.3828V10.1406H12.2148V16H10.7598V10.1406H8.5918ZM19.7051 11.3906C19.5879 10.6094 18.9824 10.1309 18.1621 10.1309C17.0586 10.1309 16.3359 10.9805 16.3359 12.4648C16.3359 13.9883 17.0684 14.7988 18.1523 14.7988C18.9629 14.7988 19.5586 14.3496 19.7051 13.5879L21.1895 13.5977C21.0234 14.9062 19.9297 16.0977 18.1328 16.0977C16.2383 16.0977 14.8418 14.7695 14.8418 12.4648C14.8418 10.1602 16.2676 8.83203 18.1328 8.83203C19.7637 8.83203 20.9941 9.76953 21.1895 11.3906H19.7051Z" fill="#868890"/>
</g>
<defs>
<clipPath id="clip0_2653_26762">
<rect width="24" height="24" fill="white"/>
</clipPath>
</defs>
</svg>
