<svg width="62" height="61" viewBox="0 0 62 61" fill="none" xmlns="http://www.w3.org/2000/svg">
<path d="M21.2188 49.5625V57.1875M9.78125 3.8125H32.6562C33.6674 3.8125 34.6371 4.21417 35.3521 4.92916C36.0671 5.64414 36.4688 6.61386 36.4688 7.625V56.7109C36.4688 56.8373 36.4185 56.9585 36.3292 57.0479C36.2398 57.1373 36.1186 57.1875 35.9922 57.1875H5.96875V7.625C5.96875 6.61386 6.37042 5.64414 7.08541 4.92916C7.80039 4.21417 8.77011 3.8125 9.78125 3.8125ZM38.375 22.875H51.7188C52.7299 22.875 53.6996 23.2767 54.4146 23.9917C55.1296 24.7066 55.5312 25.6764 55.5312 26.6875V57.1875H36.4688V24.7812C36.4688 24.2757 36.6696 23.7908 37.0271 23.4333C37.3846 23.0758 37.8694 22.875 38.375 22.875Z" stroke="black" stroke-width="1.5" stroke-linecap="round" stroke-linejoin="round"/>
<path d="M11.9347 51.4536C11.5399 51.5053 11.1389 51.432 10.7878 51.2441C10.4368 51.0561 10.1534 50.763 9.97748 50.4059C9.80153 50.0487 9.74184 49.6454 9.80678 49.2526C9.87172 48.8597 10.058 48.4971 10.3396 48.2156C10.6211 47.934 10.9838 47.7477 11.3766 47.6828C11.7694 47.6178 12.1727 47.6775 12.5299 47.8535C12.8871 48.0294 13.1802 48.3128 13.3681 48.6638C13.556 49.0148 13.6293 49.4159 13.5777 49.8107C13.5232 50.2273 13.3325 50.6143 13.0354 50.9114C12.7383 51.2085 12.3513 51.3991 11.9347 51.4536ZM11.9347 41.9224C11.5399 41.974 11.1389 41.9007 10.7878 41.7128C10.4368 41.5249 10.1534 41.2318 9.97748 40.8746C9.80153 40.5174 9.74184 40.1141 9.80678 39.7213C9.87172 39.3285 10.058 38.9658 10.3396 38.6843C10.6211 38.4028 10.9838 38.2164 11.3766 38.1515C11.7694 38.0866 12.1727 38.1463 12.5299 38.3222C12.8871 38.4982 13.1802 38.7815 13.3681 39.1326C13.556 39.4836 13.6293 39.8846 13.5777 40.2794C13.5232 40.6961 13.3325 41.083 13.0354 41.3801C12.7383 41.6773 12.3513 41.8679 11.9347 41.9224ZM11.9347 32.3911C11.5399 32.4428 11.1389 32.3695 10.7878 32.1816C10.4368 31.9937 10.1534 31.7005 9.97748 31.3434C9.80153 30.9862 9.74184 30.5829 9.80678 30.1901C9.87172 29.7972 10.058 29.4346 10.3396 29.1531C10.6211 28.8715 10.9838 28.6852 11.3766 28.6203C11.7694 28.5553 12.1727 28.615 12.5299 28.791C12.8871 28.9669 13.1802 29.2503 13.3681 29.6013C13.556 29.9523 13.6293 30.3534 13.5777 30.7482C13.5232 31.1648 13.3325 31.5518 13.0354 31.8489C12.7383 32.146 12.3513 32.3366 11.9347 32.3911ZM11.9347 22.8599C11.5399 22.9115 11.1389 22.8382 10.7878 22.6503C10.4368 22.4624 10.1534 22.1693 9.97748 21.8121C9.80153 21.4549 9.74184 21.0516 9.80678 20.6588C9.87172 20.266 10.058 19.9033 10.3396 19.6218C10.6211 19.3403 10.9838 19.1539 11.3766 19.089C11.7694 19.0241 12.1727 19.0838 12.5299 19.2597C12.8871 19.4357 13.1802 19.719 13.3681 20.0701C13.556 20.4211 13.6293 20.8221 13.5777 21.2169C13.5232 21.6336 13.3325 22.0205 13.0354 22.3177C12.7383 22.6148 12.3513 22.8054 11.9347 22.8599ZM11.9347 13.3286C11.5399 13.3803 11.1389 13.307 10.7878 13.1191C10.4368 12.9312 10.1534 12.638 9.97748 12.2809C9.80153 11.9237 9.74184 11.5204 9.80678 11.1276C9.87172 10.7347 10.058 10.3721 10.3396 10.0906C10.6211 9.80901 10.9838 9.6227 11.3766 9.55776C11.7694 9.49281 12.1727 9.55251 12.5299 9.72846C12.8871 9.90441 13.1802 10.1878 13.3681 10.5388C13.556 10.8898 13.6293 11.2909 13.5777 11.6857C13.5232 12.1023 13.3325 12.4893 13.0354 12.7864C12.7383 13.0835 12.3513 13.2741 11.9347 13.3286ZM21.466 41.9224C21.0712 41.974 20.6701 41.9007 20.3191 41.7128C19.9681 41.5249 19.6847 41.2318 19.5087 40.8746C19.3328 40.5174 19.2731 40.1141 19.338 39.7213C19.403 39.3285 19.5893 38.9658 19.8708 38.6843C20.1524 38.4028 20.515 38.2164 20.9078 38.1515C21.3007 38.0866 21.704 38.1463 22.0611 38.3222C22.4183 38.4982 22.7114 38.7815 22.8993 39.1326C23.0873 39.4836 23.1605 39.8846 23.1089 40.2794C23.0544 40.6961 22.8638 41.083 22.5667 41.3801C22.2696 41.6773 21.8826 41.8679 21.466 41.9224ZM21.466 32.3911C21.0712 32.4428 20.6701 32.3695 20.3191 32.1816C19.9681 31.9937 19.6847 31.7005 19.5087 31.3434C19.3328 30.9862 19.2731 30.5829 19.338 30.1901C19.403 29.7972 19.5893 29.4346 19.8708 29.1531C20.1524 28.8715 20.515 28.6852 20.9078 28.6203C21.3007 28.5553 21.704 28.615 22.0611 28.791C22.4183 28.9669 22.7114 29.2503 22.8993 29.6013C23.0873 29.9523 23.1605 30.3534 23.1089 30.7482C23.0544 31.1648 22.8638 31.5518 22.5667 31.8489C22.2696 32.146 21.8826 32.3366 21.466 32.3911ZM21.466 22.8599C21.0712 22.9115 20.6701 22.8382 20.3191 22.6503C19.9681 22.4624 19.6847 22.1693 19.5087 21.8121C19.3328 21.4549 19.2731 21.0516 19.338 20.6588C19.403 20.266 19.5893 19.9033 19.8708 19.6218C20.1524 19.3403 20.515 19.1539 20.9078 19.089C21.3007 19.0241 21.704 19.0838 22.0611 19.2597C22.4183 19.4357 22.7114 19.719 22.8993 20.0701C23.0873 20.4211 23.1605 20.8221 23.1089 21.2169C23.0544 21.6336 22.8638 22.0205 22.5667 22.3177C22.2696 22.6148 21.8826 22.8054 21.466 22.8599ZM21.466 13.3286C21.0712 13.3803 20.6701 13.307 20.3191 13.1191C19.9681 12.9312 19.6847 12.638 19.5087 12.2809C19.3328 11.9237 19.2731 11.5204 19.338 11.1276C19.403 10.7347 19.5893 10.3721 19.8708 10.0906C20.1524 9.80901 20.515 9.6227 20.9078 9.55776C21.3007 9.49281 21.704 9.55251 22.0611 9.72846C22.4183 9.90441 22.7114 10.1878 22.8993 10.5388C23.0873 10.8898 23.1605 11.2909 23.1089 11.6857C23.0544 12.1023 22.8638 12.4893 22.5667 12.7864C22.2696 13.0835 21.8826 13.2741 21.466 13.3286ZM30.9972 51.4536C30.6024 51.5053 30.2013 51.432 29.8503 51.2441C29.4993 51.0561 29.2159 50.763 29.04 50.4059C28.864 50.0487 28.8043 49.6454 28.8693 49.2526C28.9342 48.8597 29.1205 48.4971 29.4021 48.2156C29.6836 47.934 30.0463 47.7477 30.4391 47.6828C30.8319 47.6178 31.2352 47.6775 31.5924 47.8535C31.9496 48.0294 32.2427 48.3128 32.4306 48.6638C32.6185 49.0148 32.6918 49.4159 32.6402 49.8107C32.5857 50.2273 32.395 50.6143 32.0979 50.9114C31.8008 51.2085 31.4138 51.3991 30.9972 51.4536ZM30.9972 41.9224C30.6024 41.974 30.2013 41.9007 29.8503 41.7128C29.4993 41.5249 29.2159 41.2318 29.04 40.8746C28.864 40.5174 28.8043 40.1141 28.8693 39.7213C28.9342 39.3285 29.1205 38.9658 29.4021 38.6843C29.6836 38.4028 30.0463 38.2164 30.4391 38.1515C30.8319 38.0866 31.2352 38.1463 31.5924 38.3222C31.9496 38.4982 32.2427 38.7815 32.4306 39.1326C32.6185 39.4836 32.6918 39.8846 32.6402 40.2794C32.5857 40.6961 32.395 41.083 32.0979 41.3801C31.8008 41.6773 31.4138 41.8679 30.9972 41.9224ZM30.9972 32.3911C30.6024 32.4428 30.2013 32.3695 29.8503 32.1816C29.4993 31.9937 29.2159 31.7005 29.04 31.3434C28.864 30.9862 28.8043 30.5829 28.8693 30.1901C28.9342 29.7972 29.1205 29.4346 29.4021 29.1531C29.6836 28.8715 30.0463 28.6852 30.4391 28.6203C30.8319 28.5553 31.2352 28.615 31.5924 28.791C31.9496 28.9669 32.2427 29.2503 32.4306 29.6013C32.6185 29.9523 32.6918 30.3534 32.6402 30.7482C32.5857 31.1648 32.395 31.5518 32.0979 31.8489C31.8008 32.146 31.4138 32.3366 30.9972 32.3911Z" fill="black"/>
<path d="M32.0993 22.3186C32.8414 21.5765 32.8384 20.3703 32.0926 19.6245C31.3467 18.8786 30.1405 18.8756 29.3984 19.6177C28.6563 20.3598 28.6593 21.566 29.4051 22.3119C30.151 23.0577 31.3572 23.0607 32.0993 22.3186Z" fill="black"/>
<path d="M30.9972 13.3286C30.6024 13.3803 30.2014 13.307 29.8503 13.1191C29.4993 12.9312 29.2159 12.638 29.04 12.2809C28.864 11.9237 28.8043 11.5204 28.8693 11.1276C28.9342 10.7347 29.1205 10.3721 29.4021 10.0906C29.6836 9.80901 30.0463 9.6227 30.4391 9.55776C30.8319 9.49281 31.2352 9.55251 31.5924 9.72846C31.9496 9.90441 32.2427 10.1878 32.4306 10.5388C32.6185 10.8898 32.6918 11.2909 32.6402 11.6857C32.5857 12.1023 32.395 12.4893 32.0979 12.7864C31.8008 13.0835 31.4138 13.2741 30.9972 13.3286ZM47.9056 47.6566C47.5286 47.6566 47.1601 47.7684 46.8466 47.9779C46.5331 48.1873 46.2888 48.4851 46.1445 48.8334C46.0002 49.1817 45.9625 49.565 46.036 49.9348C46.1096 50.3045 46.2911 50.6442 46.5577 50.9108C46.8243 51.1774 47.164 51.3589 47.5337 51.4325C47.9035 51.506 48.2868 51.4683 48.6351 51.324C48.9835 51.1797 49.2812 50.9354 49.4906 50.6219C49.7001 50.3084 49.8119 49.9399 49.8119 49.5629C49.8119 49.0573 49.6111 48.5724 49.2536 48.2149C48.8961 47.8575 48.4112 47.6566 47.9056 47.6566ZM47.9056 38.1254C47.5286 38.1254 47.1601 38.2372 46.8466 38.4466C46.5331 38.6561 46.2888 38.9538 46.1445 39.3021C46.0002 39.6504 45.9625 40.0337 46.036 40.4035C46.1096 40.7733 46.2911 41.1129 46.5577 41.3795C46.8243 41.6461 47.164 41.8277 47.5337 41.9012C47.9035 41.9748 48.2868 41.937 48.6351 41.7928C48.9835 41.6485 49.2812 41.4042 49.4906 41.0907C49.7001 40.7772 49.8119 40.4086 49.8119 40.0316C49.8119 39.526 49.6111 39.0412 49.2536 38.6837C48.8961 38.3262 48.4112 38.1254 47.9056 38.1254ZM47.9056 28.5941C47.5286 28.5941 47.1601 28.7059 46.8466 28.9154C46.5331 29.1248 46.2888 29.4226 46.1445 29.7709C46.0002 30.1192 45.9625 30.5025 46.036 30.8723C46.1096 31.242 46.2911 31.5817 46.5577 31.8483C46.8243 32.1149 47.164 32.2964 47.5337 32.37C47.9035 32.4435 48.2868 32.4058 48.6351 32.2615C48.9835 32.1172 49.2812 31.8729 49.4906 31.5594C49.7001 31.2459 49.8119 30.8774 49.8119 30.5004C49.8119 29.9948 49.6111 29.5099 49.2536 29.1524C48.8961 28.795 48.4112 28.5941 47.9056 28.5941ZM40.2806 47.6566C39.9036 47.6566 39.5351 47.7684 39.2216 47.9779C38.9081 48.1873 38.6638 48.4851 38.5195 48.8334C38.3752 49.1817 38.3375 49.565 38.411 49.9348C38.4846 50.3045 38.6661 50.6442 38.9327 50.9108C39.1993 51.1774 39.539 51.3589 39.9087 51.4325C40.2785 51.506 40.6618 51.4683 41.0101 51.324C41.3585 51.1797 41.6562 50.9354 41.8656 50.6219C42.0751 50.3084 42.1869 49.9399 42.1869 49.5629C42.1869 49.0573 41.9861 48.5724 41.6286 48.2149C41.2711 47.8575 40.7862 47.6566 40.2806 47.6566ZM40.2806 38.1254C39.9036 38.1254 39.5351 38.2372 39.2216 38.4466C38.9081 38.6561 38.6638 38.9538 38.5195 39.3021C38.3752 39.6504 38.3375 40.0337 38.411 40.4035C38.4846 40.7733 38.6661 41.1129 38.9327 41.3795C39.1993 41.6461 39.539 41.8277 39.9087 41.9012C40.2785 41.9748 40.6618 41.937 41.0101 41.7928C41.3585 41.6485 41.6562 41.4042 41.8656 41.0907C42.0751 40.7772 42.1869 40.4086 42.1869 40.0316C42.1869 39.526 41.9861 39.0412 41.6286 38.6837C41.2711 38.3262 40.7862 38.1254 40.2806 38.1254ZM40.2806 28.5941C39.9036 28.5941 39.5351 28.7059 39.2216 28.9154C38.9081 29.1248 38.6638 29.4226 38.5195 29.7709C38.3752 30.1192 38.3375 30.5025 38.411 30.8723C38.4846 31.242 38.6661 31.5817 38.9327 31.8483C39.1993 32.1149 39.539 32.2964 39.9087 32.37C40.2785 32.4435 40.6618 32.4058 41.0101 32.2615C41.3585 32.1172 41.6562 31.8729 41.8656 31.5594C42.0751 31.2459 42.1869 30.8774 42.1869 30.5004C42.1869 29.9948 41.9861 29.5099 41.6286 29.1524C41.2711 28.795 40.7862 28.5941 40.2806 28.5941Z" fill="black"/>
</svg>
