<svg width="60" height="60" viewBox="0 0 60 60" fill="none" xmlns="http://www.w3.org/2000/svg">
<path d="M12.143 28.5705C11.866 28.0904 11.4971 27.6695 11.0574 27.3319C10.6178 26.9943 10.1159 26.7466 9.58052 26.603C9.04514 26.4593 8.4867 26.4226 7.9371 26.4947C7.38749 26.5669 6.85749 26.7466 6.37734 27.0236C5.8972 27.3006 5.47631 27.6695 5.13872 28.1092C4.80113 28.5488 4.55345 29.0507 4.40981 29.5861C4.26616 30.1215 4.22938 30.6799 4.30156 31.2295C4.37374 31.7791 4.55346 32.3091 4.83047 32.7893L13.5023 47.8127C15.763 51.6427 19.4443 54.4255 23.7458 55.5558C28.0472 56.6862 32.621 56.0727 36.4725 53.8489C40.3241 51.6251 43.142 47.9706 44.3136 43.6803C45.4852 39.3899 44.9157 34.8104 42.7289 30.9377L38.7445 24.0236C38.1508 23.1281 37.2377 22.4929 36.1915 22.2476C35.1454 22.0024 34.0451 22.1655 33.1152 22.7037C32.1852 23.2419 31.4957 24.1147 31.1873 25.144C30.8788 26.1733 30.9748 27.2814 31.4555 28.2424" stroke="white" stroke-width="3.75" stroke-linecap="round" stroke-linejoin="round"/>
<path d="M25.0805 34.1015L16.1742 18.6796C15.8972 18.1994 15.5283 17.7786 15.0887 17.441C14.649 17.1034 14.1472 16.8557 13.6118 16.7121C13.0764 16.5684 12.5179 16.5316 11.9683 16.6038C11.4187 16.676 10.8887 16.8557 10.4086 17.1327C9.92845 17.4097 9.50756 17.7786 9.16997 18.2183C8.83238 18.6579 8.5847 19.1598 8.44106 19.6952C8.29742 20.2305 8.26063 20.789 8.33281 21.3386C8.40499 21.8882 8.58471 22.4182 8.86172 22.8983L17.768 38.3202" stroke="white" stroke-width="3.75" stroke-linecap="round" stroke-linejoin="round"/>
<path d="M35.2055 34.7577L25.3617 17.6952C24.8023 16.7255 23.8806 16.0178 22.7993 15.7277C21.718 15.4376 20.5658 15.5889 19.5961 16.1484C18.6264 16.7078 17.9187 17.6295 17.6286 18.7108C17.3385 19.7921 17.4898 20.9443 18.0492 21.914" stroke="white" stroke-width="3.75" stroke-linecap="round" stroke-linejoin="round"/>
<path d="M23.2055 15.8671L20.7914 11.6718C20.232 10.7021 19.3102 9.99435 18.229 9.70425C17.1477 9.41415 15.9955 9.56547 15.0258 10.1249C14.0561 10.6844 13.3483 11.6061 13.0583 12.6874C12.7682 13.7686 12.9195 14.9208 13.4789 15.8905L14.0414 16.8515" stroke="white" stroke-width="3.75" stroke-linecap="round" stroke-linejoin="round"/>
<path d="M44.0648 44.8827C46.9254 42.2925 48.8132 38.8012 49.4144 34.9893C50.0156 31.1774 49.294 27.2745 47.3695 23.9296L43.3852 17.039C43.1082 16.5588 42.7393 16.1379 42.2996 15.8003C41.86 15.4628 41.3581 15.2151 40.8227 15.0714C40.2873 14.9278 39.7289 14.891 39.1793 14.9632C38.6297 15.0354 38.0997 15.2151 37.6195 15.4921C37.1394 15.7691 36.7185 16.138 36.3809 16.5776C36.0433 17.0173 35.7956 17.5191 35.652 18.0545C35.5084 18.5899 35.4716 19.1484 35.5437 19.698C35.6159 20.2476 35.7956 20.7776 36.0727 21.2577" stroke="white" stroke-width="3.75" stroke-linecap="round" stroke-linejoin="round"/>
<path d="M36.6117 22.1952L29.9789 10.7109C29.4195 9.74115 28.4977 9.03341 27.4165 8.74331C26.3352 8.45322 25.183 8.60453 24.2133 9.16397C23.2436 9.72342 22.5358 10.6452 22.2458 11.7264C21.9557 12.8077 22.107 13.9599 22.6664 14.9296" stroke="white" stroke-width="3.75" stroke-linecap="round" stroke-linejoin="round"/>
<path d="M41.4375 2.64844L40.4766 6.25781" stroke="white" stroke-width="3.75" stroke-linecap="round" stroke-linejoin="round"/>
<path d="M48.5391 5.95361L46.3828 9.02393" stroke="white" stroke-width="3.75" stroke-linecap="round" stroke-linejoin="round"/>
<path d="M54.0469 11.4614L50.9766 13.6177" stroke="white" stroke-width="3.75" stroke-linecap="round" stroke-linejoin="round"/>
</svg>
