<svg width="30" height="29" viewBox="0 0 30 29" fill="none" xmlns="http://www.w3.org/2000/svg">
<path d="M3.8457 8.92251C3.8457 8.3065 4.34508 7.80713 4.96109 7.80713H7.19186C7.80787 7.80713 8.30724 8.3065 8.30724 8.92251H3.8457Z" fill="#202026"/>
<rect x="1.61475" y="8.92285" width="26.7692" height="15.0577" rx="1.11538" fill="#4B65F7"/>
<path d="M10.7868 6.75093C10.9757 6.37301 11.362 6.13428 11.7845 6.13428H18.2135C18.6359 6.13428 19.0221 6.37294 19.2111 6.75077L20.3267 8.98154C20.6976 9.72316 20.1583 10.5958 19.3291 10.5958H10.6693C9.8402 10.5958 9.30091 9.72331 9.67164 8.9817L10.7868 6.75093Z" fill="#4B65F7"/>
<path d="M1.61475 22.3071H28.384V22.8648H1.61475V22.3071Z" fill="#374FDA"/>
<path d="M12.7686 7.80713H17.2301V8.92251H12.7686V7.80713Z" fill="#202026"/>
<rect x="23.3647" y="10.0386" width="2.23077" height="1.11538" rx="0.557692" fill="#FFC107"/>
<circle cx="14.9998" cy="15.6155" r="5.57692" fill="#202026"/>
<circle cx="15.0007" cy="15.6149" r="5.01923" fill="#0167FF"/>
<circle cx="14.9991" cy="15.6158" r="4.46154" fill="#3DCBDB"/>
</svg>
