<svg width="62" height="61" viewBox="0 0 62 61" fill="none" xmlns="http://www.w3.org/2000/svg">
<path d="M10.9141 45.7497C10.9141 43.0533 11.9852 40.4674 13.8918 38.5608C15.7984 36.6541 18.3844 35.583 21.0807 35.583H41.4141C44.1104 35.583 46.6964 36.6541 48.603 38.5608C50.5096 40.4674 51.5807 43.0533 51.5807 45.7497C51.5807 47.0979 51.0452 48.3908 50.0919 49.3441C49.1385 50.2974 47.8456 50.833 46.4974 50.833H15.9974C14.6492 50.833 13.3562 50.2974 12.4029 49.3441C11.4496 48.3908 10.9141 47.0979 10.9141 45.7497Z" stroke="black" stroke-width="1.5" stroke-linejoin="round"/>
<path d="M31.25 25.4165C35.4612 25.4165 38.875 22.0027 38.875 17.7915C38.875 13.5803 35.4612 10.1665 31.25 10.1665C27.0388 10.1665 23.625 13.5803 23.625 17.7915C23.625 22.0027 27.0388 25.4165 31.25 25.4165Z" stroke="black" stroke-width="1.5"/>
</svg>
