<svg width="current" height="current" viewBox="0 0 30 29" fill="none" xmlns="http://www.w3.org/2000/svg">
<path d="M9.99395 23.9758C12.1953 23.9758 14.3966 23.9862 16.5986 23.9726C18.0476 23.9638 18.4648 23.4493 18.3187 21.9167C17.9941 18.502 15.5051 15.6354 12.3037 15.2137C10.8374 15.0208 9.31466 15.0024 7.84762 15.1825C4.3939 15.6074 1.88157 18.5252 1.62551 22.1824C1.54041 23.3972 1.98851 23.9542 3.1656 23.967C5.44147 23.9926 7.71733 23.9742 9.99395 23.975V23.9758Z" fill="#A3B1FF"/>
<path d="M19.9698 13.9419C22.4251 13.9665 24.4518 11.9908 24.4806 9.54371C24.5101 7.10082 22.5501 5.08581 20.0801 5.02047C17.6853 4.95724 15.582 7.00738 15.5581 9.42919C15.5335 11.8672 17.5385 13.9173 19.9698 13.9419Z" fill="#7185F2"/>
<path d="M14.4414 9.38239C14.3908 6.95592 12.301 4.95728 9.88032 5.0205C7.48634 5.08303 5.49978 7.11749 5.51945 9.48636C5.54052 11.9838 7.60786 13.9972 10.0925 13.941C12.5384 13.8855 14.4927 11.8377 14.4414 9.38239Z" fill="#A3B1FF"/>
<path d="M18.3483 15.591C20.3334 17.9473 21.3386 20.6438 20.943 23.9618C23.0784 23.9618 25.1831 24.019 27.2817 23.9344C28.1643 23.8989 28.3828 23.1097 28.3866 22.2673C28.4027 18.6672 25.9614 15.5983 22.5501 15.1461C21.1929 14.9663 19.7967 15.1162 18.4188 15.1162C18.395 15.2742 18.372 15.4322 18.3483 15.5902V15.591Z" fill="#7185F2"/>
</svg>
