<svg width="24" height="24" viewBox="0 0 24 24" fill="none" xmlns="http://www.w3.org/2000/svg">
<path d="M12.0032 9C11.2075 9 10.4445 9.31607 9.88185 9.87868C9.31924 10.4413 9.00317 11.2044 9.00317 12C9.00317 12.7956 9.31924 13.5587 9.88185 14.1213C10.4445 14.6839 11.2075 15 12.0032 15C12.7988 15 13.5619 14.6839 14.1245 14.1213C14.6871 13.5587 15.0032 12.7956 15.0032 12C15.0032 11.2044 14.6871 10.4413 14.1245 9.87868C13.5619 9.31607 12.7988 9 12.0032 9ZM12.0032 17C10.6771 17 9.40532 16.4732 8.46764 15.5355C7.52996 14.5979 7.00317 13.3261 7.00317 12C7.00317 10.6739 7.52996 9.40215 8.46764 8.46447C9.40532 7.52678 10.6771 7 12.0032 7C13.3293 7 14.601 7.52678 15.5387 8.46447C16.4764 9.40215 17.0032 10.6739 17.0032 12C17.0032 13.3261 16.4764 14.5979 15.5387 15.5355C14.601 16.4732 13.3293 17 12.0032 17ZM12.0032 4.5C7.00317 4.5 2.73317 7.61 1.00317 12C2.73317 16.39 7.00317 19.5 12.0032 19.5C17.0032 19.5 21.2732 16.39 23.0032 12C21.2732 7.61 17.0032 4.5 12.0032 4.5Z" fill="#202026"/>
</svg>
