<svg width="29" height="29" viewBox="0 0 29 29" fill="none" xmlns="http://www.w3.org/2000/svg">
<g clip-path="url(#clip0_3354_68844)">
<rect x="20.1411" y="1.04004" width="0.701277" height="27.4204" rx="0.350638" transform="rotate(14.6648 20.1411 1.04004)" fill="#CCCDD6"/>
<path fill-rule="evenodd" clip-rule="evenodd" d="M8.63161 8.25107L14.842 9.87626C14.2505 11.2484 12.6557 12.0047 11.0754 11.5912C9.49511 11.1776 8.47521 9.73704 8.63161 8.25107ZM12.5785 5.68277L12.6591 5.70387C12.6457 5.7002 12.6323 5.6966 12.6189 5.69308C12.6054 5.68956 12.5919 5.68612 12.5785 5.68277ZM14.9938 9.42505L14.974 9.50093C14.9774 9.48835 14.9808 9.47572 14.9841 9.46306C14.9875 9.45039 14.9907 9.43772 14.9938 9.42505Z" fill="#FFCE54"/>
<path fill-rule="evenodd" clip-rule="evenodd" d="M14.8748 9.88486L21.0852 11.5101C20.4937 12.8822 18.8988 13.6385 17.3186 13.225C15.7383 12.8114 14.7184 11.3708 14.8748 9.88486ZM18.8217 7.31656L18.9023 7.33766C18.8889 7.33399 18.8755 7.33039 18.862 7.32687C18.8486 7.32335 18.8351 7.31991 18.8217 7.31656ZM21.237 11.0589L21.2171 11.1347C21.2206 11.1221 21.224 11.1095 21.2273 11.0968C21.2306 11.0842 21.2338 11.0715 21.237 11.0589Z" fill="#F2545E"/>
<path fill-rule="evenodd" clip-rule="evenodd" d="M21.117 11.519L27.3274 13.1442C26.7359 14.5164 25.1411 15.2728 23.5607 14.8593C21.9804 14.4457 20.9605 13.005 21.117 11.519ZM25.0724 8.95297L25.136 8.96962C25.1254 8.96675 25.1148 8.96393 25.1042 8.96115C25.0936 8.95837 25.083 8.95564 25.0724 8.95297ZM27.4792 12.6928L27.4592 12.7693C27.4627 12.7566 27.4661 12.7439 27.4695 12.7311C27.4728 12.7183 27.4761 12.7056 27.4792 12.6928Z" fill="#FFCE54"/>
<path fill-rule="evenodd" clip-rule="evenodd" d="M27.3184 13.1609L8.62619 8.26937C10.478 3.865 15.3335 1.3774 20.0901 2.62215C24.8467 3.86689 27.8613 8.41402 27.3184 13.1609ZM8.15635 9.67592L8.19967 9.51036C8.19222 9.53786 8.18488 9.56542 8.17765 9.59305C8.17043 9.62067 8.16332 9.6483 8.15635 9.67592Z" fill="#F2545E"/>
<path fill-rule="evenodd" clip-rule="evenodd" d="M14.8817 9.90733L21.1308 11.5427C21.9422 7.48879 20.7859 3.92398 20.0948 2.62435C20.0929 2.62385 20.091 2.62334 20.089 2.62284C20.0808 2.62068 20.0725 2.61853 20.0642 2.61638C16.9183 4.28218 15.3062 8.14393 14.8817 9.90733Z" fill="#FFCE54"/>
<path d="M5.57617 24.5381H7.24925L6.11508 27.0855C5.9898 27.3668 5.63856 27.5949 5.33055 27.5949H4.77286C4.46486 27.5949 4.31673 27.3668 4.442 27.0855L5.57617 24.5381Z" fill="#A5A7BB"/>
<path d="M20.6337 23.4229H18.9607L20.6482 27.0924C20.7764 27.3711 21.1245 27.5951 21.4296 27.5951H21.9872C22.2981 27.5951 22.4456 27.3628 22.315 27.0788L20.6337 23.4229Z" fill="#A5A7BB"/>
<path d="M5.5764 21.7497H19.2399C20.0764 20.8202 22.0283 18.7381 23.1437 17.8458C24.2591 16.9535 25.8392 17.8458 26.4899 18.4035L20.9129 23.9804C20.4668 24.4266 19.7976 24.5381 19.5187 24.5381H3.90332C3.90332 22.5304 5.0187 21.8426 5.5764 21.7497Z" fill="#7C93FF"/>
<path fill-rule="evenodd" clip-rule="evenodd" d="M4.03971 23.4222C3.95393 23.7381 3.90283 24.1073 3.90283 24.537H19.5182C19.7971 24.537 20.4663 24.4255 20.9124 23.9793L26.4894 18.4024C26.2499 18.1972 25.8846 17.9466 25.4629 17.7563L20.3548 22.8645C19.9086 23.3106 19.2394 23.4222 18.9605 23.4222H4.03971Z" fill="#556FF5"/>
</g>
<defs>
<clipPath id="clip0_3354_68844">
<rect width="29" height="29" fill="white"/>
</clipPath>
</defs>
</svg>
