<svg width="24" height="24" viewBox="0 0 24 24" fill="none" xmlns="http://www.w3.org/2000/svg">
<path d="M11.1759 19.569C11.2676 19.7022 11.3904 19.8112 11.5336 19.8864C11.6767 19.9617 11.8361 20.001 11.9979 20.001C12.1596 20.001 12.319 19.9617 12.4622 19.8864C12.6054 19.8112 12.7281 19.7022 12.8199 19.569L21.8199 6.569C21.924 6.41906 21.9851 6.24343 21.9965 6.06121C22.0079 5.87898 21.9691 5.69712 21.8843 5.53539C21.7996 5.37366 21.6722 5.23825 21.5159 5.14386C21.3596 5.04947 21.1804 4.99971 20.9979 5H2.99786C2.81571 5.00075 2.6372 5.05115 2.48154 5.14576C2.32588 5.24038 2.19896 5.37564 2.11443 5.53699C2.0299 5.69835 1.99095 5.8797 2.00177 6.06153C2.01259 6.24337 2.07278 6.41881 2.17586 6.569L11.1759 19.569Z" fill="#202026"/>
</svg>
