<svg width="24" height="24" viewBox="0 0 24 24" fill="none" xmlns="http://www.w3.org/2000/svg">
<path d="M11.758 19.108C10.666 19.108 9.7 18.874 8.86 18.406C8.02 17.938 7.36 17.296 6.88 16.48C6.412 15.652 6.178 14.722 6.178 13.69V6.382H8.122V13.564C8.122 14.26 8.284 14.884 8.608 15.436C8.944 15.988 9.382 16.426 9.922 16.75C10.474 17.074 11.086 17.236 11.758 17.236C12.466 17.236 13.096 17.074 13.648 16.75C14.212 16.426 14.656 15.988 14.98 15.436C15.316 14.884 15.484 14.26 15.484 13.564V6.382H17.338V13.69C17.338 14.722 17.098 15.652 16.618 16.48C16.15 17.296 15.496 17.938 14.656 18.406C13.816 18.874 12.85 19.108 11.758 19.108Z" fill="#202026"/>
<path d="M4 21.25H19.516V22.15H4V21.25Z" fill="#202026"/>
</svg>
