<svg width="24" height="24" viewBox="0 0 24 24" fill="none" xmlns="http://www.w3.org/2000/svg">
<path d="M7.196 19V6.4H13.406C14.366 6.4 15.176 6.526 15.836 6.778C16.496 7.018 16.994 7.372 17.33 7.84C17.678 8.296 17.852 8.848 17.852 9.496C17.852 10.204 17.66 10.81 17.276 11.314C16.892 11.806 16.328 12.136 15.584 12.304L15.602 11.98C16.154 12.1 16.646 12.304 17.078 12.592C17.522 12.868 17.87 13.228 18.122 13.672C18.386 14.104 18.518 14.608 18.518 15.184C18.518 15.868 18.386 16.456 18.122 16.948C17.858 17.428 17.498 17.824 17.042 18.136C16.586 18.436 16.07 18.658 15.494 18.802C14.93 18.934 14.33 19 13.694 19H7.196ZM10.076 16.444H13.658C14.03 16.444 14.348 16.396 14.612 16.3C14.888 16.192 15.104 16.036 15.26 15.832C15.428 15.616 15.512 15.352 15.512 15.04C15.512 14.716 15.416 14.458 15.224 14.266C15.044 14.074 14.804 13.936 14.504 13.852C14.216 13.756 13.904 13.708 13.568 13.708H10.076V16.444ZM10.076 11.422H13.154C13.49 11.422 13.784 11.374 14.036 11.278C14.3 11.17 14.498 11.026 14.63 10.846C14.774 10.654 14.846 10.426 14.846 10.162C14.846 9.766 14.684 9.466 14.36 9.262C14.036 9.058 13.598 8.956 13.046 8.956H10.076V11.422Z" fill="#202026"/>
</svg>
