<svg width="current" height="current" viewBox="0 0 22 22" fill="none" xmlns="http://www.w3.org/2000/svg">
<path d="M21.4966 11.243C21.4966 10.4849 21.4277 9.75308 21.303 9.05078H11.2148V13.1956H16.9809C16.7315 14.5346 15.9767 15.6701 14.8445 16.4282V19.1159H18.3067C20.3316 17.2519 21.4999 14.5051 21.4999 11.243H21.4966Z" fill="#3E82F1"/>
<path d="M11.2116 21.7121C14.1028 21.7121 16.528 20.7539 18.3002 19.1163L14.8379 16.4285C13.8796 17.0717 12.6523 17.4524 11.2116 17.4524C8.42207 17.4524 6.05921 15.5687 5.21907 13.0352H1.63867V15.8115C3.40098 19.3132 7.02404 21.7121 11.2116 21.7121Z" fill="#32A753"/>
<path d="M5.21917 13.0347C5.00586 12.3915 4.88443 11.7056 4.88443 11C4.88443 10.2944 5.00586 9.60856 5.21917 8.96533V6.18896H1.63877C0.913501 7.63622 0.5 9.27054 0.5 11C0.5 12.7295 0.913501 14.3638 1.63877 15.8111L5.21917 13.0347Z" fill="#F9BB00"/>
<path d="M11.2116 4.5483C12.7835 4.5483 14.198 5.08979 15.3072 6.1498L18.3789 3.07807C16.5247 1.34858 14.0995 0.288574 11.2116 0.288574C7.02404 0.288574 3.40098 2.68754 1.63867 6.18918L5.21908 8.96555C6.06249 6.43203 8.42207 4.5483 11.2116 4.5483Z" fill="#E74133"/>
</svg>
