<svg width="24" height="24" viewBox="0 0 24 24" fill="none" xmlns="http://www.w3.org/2000/svg">
<path d="M11.84 19.18C11.06 19.18 10.34 19.09 9.68 18.91C9.032 18.73 8.438 18.46 7.898 18.1C7.37 17.728 6.89 17.272 6.458 16.732L7.754 15.166C8.414 15.994 9.068 16.582 9.716 16.93C10.364 17.266 11.114 17.434 11.966 17.434C12.482 17.434 12.968 17.362 13.424 17.218C13.88 17.074 14.246 16.864 14.522 16.588C14.798 16.312 14.936 15.982 14.936 15.598C14.936 15.346 14.87 15.124 14.738 14.932C14.618 14.74 14.444 14.578 14.216 14.446C14 14.302 13.742 14.176 13.442 14.068C13.154 13.96 12.848 13.87 12.524 13.798C12.2 13.714 11.864 13.648 11.516 13.6C10.808 13.48 10.178 13.318 9.626 13.114C9.074 12.91 8.606 12.652 8.222 12.34C7.85 12.028 7.568 11.668 7.376 11.26C7.184 10.84 7.088 10.36 7.088 9.82C7.088 9.292 7.208 8.806 7.448 8.362C7.7 7.918 8.042 7.54 8.474 7.228C8.918 6.904 9.434 6.658 10.022 6.49C10.61 6.31 11.246 6.22 11.93 6.22C12.662 6.22 13.328 6.304 13.928 6.472C14.528 6.64 15.062 6.892 15.53 7.228C15.998 7.552 16.388 7.954 16.7 8.434L15.368 9.82C15.092 9.412 14.774 9.07 14.414 8.794C14.054 8.518 13.658 8.314 13.226 8.182C12.806 8.038 12.356 7.966 11.876 7.966C11.336 7.966 10.856 8.038 10.436 8.182C10.028 8.326 9.704 8.53 9.464 8.794C9.224 9.046 9.104 9.352 9.104 9.712C9.104 9.988 9.17 10.234 9.302 10.45C9.434 10.666 9.626 10.858 9.878 11.026C10.13 11.182 10.454 11.32 10.85 11.44C11.246 11.548 11.696 11.644 12.2 11.728C12.884 11.848 13.514 12.004 14.09 12.196C14.678 12.376 15.182 12.604 15.602 12.88C16.034 13.144 16.364 13.468 16.592 13.852C16.832 14.236 16.952 14.686 16.952 15.202C16.952 16.006 16.742 16.708 16.322 17.308C15.902 17.908 15.308 18.37 14.54 18.694C13.784 19.018 12.884 19.18 11.84 19.18Z" fill="#202026"/>
<path d="M5 13.33H18.464V14.23H5V13.33Z" fill="#202026"/>
</svg>
