<svg width="current" height="current" viewBox="0 0 29 29" fill="none" xmlns="http://www.w3.org/2000/svg">
<path d="M3.34619 9.48058C3.34619 7.01654 5.34369 5.01904 7.80773 5.01904H21.1923C23.6564 5.01904 25.6539 7.01654 25.6539 9.48058V13.9421H3.34619V9.48058Z" fill="#9D8DF6"/>
<path d="M5.57715 12.827C5.57715 11.287 6.82558 10.0386 8.36561 10.0386H10.5964C12.1364 10.0386 13.3848 11.287 13.3848 12.827H5.57715Z" fill="#E7E2FF"/>
<path d="M15.6152 12.827C15.6152 11.287 16.8637 10.0386 18.4037 10.0386H20.6345C22.1745 10.0386 23.4229 11.287 23.4229 12.827H15.6152Z" fill="#E7E2FF"/>
<path d="M1.11523 17.2887C1.11523 14.8246 3.11273 12.8271 5.57677 12.8271H23.4229C25.887 12.8271 27.8845 14.8246 27.8845 17.2887V23.4233C27.8845 23.7313 27.6348 23.981 27.3268 23.981H1.67293C1.36492 23.981 1.11523 23.7313 1.11523 23.4233V17.2887Z" fill="#7867DE"/>
<path d="M1.11523 21.75H27.8845V23.4231C27.8845 23.7311 27.6348 23.9808 27.3268 23.9808H1.67293C1.36492 23.9808 1.11523 23.7311 1.11523 23.4231V21.75Z" fill="#F26EBD"/>
<path d="M1.11523 19.519H27.8845V21.7498H1.11523V19.519Z" fill="#AEA2F4"/>
<rect x="18.9614" y="13.9424" width="5.57692" height="1.67308" rx="0.836538" fill="#9D8DF6"/>
<rect x="15.6152" y="13.9424" width="2.78846" height="1.67308" rx="0.836538" fill="#9D8DF6"/>
</svg>
