<svg width="24" height="24" viewBox="0 0 24 24" fill="none" xmlns="http://www.w3.org/2000/svg">
<path d="M11.1759 4.431C11.2676 4.29776 11.3904 4.18882 11.5336 4.11355C11.6767 4.03829 11.8361 3.99897 11.9979 3.99897C12.1596 3.99897 12.319 4.03829 12.4622 4.11355C12.6054 4.18882 12.7281 4.29776 12.8199 4.431L21.8199 17.431C21.924 17.5809 21.9851 17.7566 21.9965 17.9388C22.0079 18.121 21.9691 18.3029 21.8843 18.4646C21.7996 18.6263 21.6722 18.7618 21.5159 18.8561C21.3596 18.9505 21.1804 19.0003 20.9979 19H2.99786C2.81571 18.9992 2.6372 18.9489 2.48154 18.8542C2.32588 18.7596 2.19896 18.6244 2.11443 18.463C2.0299 18.3017 1.99095 18.1203 2.00177 17.9385C2.01259 17.7566 2.07278 17.5812 2.17586 17.431L11.1759 4.431Z" fill="white"/>
</svg>
