<svg width="21" height="20" viewBox="0 0 21 20" fill="none" xmlns="http://www.w3.org/2000/svg">
<path d="M6.54688 15.7734L4.02344 17.8828C3.93238 17.9582 3.82183 18.0061 3.70461 18.0212C3.58738 18.0363 3.46829 18.0178 3.36115 17.9679C3.25401 17.918 3.16321 17.8387 3.09929 17.7393C3.03536 17.6399 3.00094 17.5244 3 17.4062V5C3 4.83424 3.06585 4.67527 3.18306 4.55806C3.30027 4.44085 3.45924 4.375 3.625 4.375H17.375C17.5408 4.375 17.6997 4.44085 17.8169 4.55806C17.9342 4.67527 18 4.83424 18 5V15C18 15.1658 17.9342 15.3247 17.8169 15.4419C17.6997 15.5592 17.5408 15.625 17.375 15.625H6.94531C6.79899 15.625 6.65756 15.6777 6.54688 15.7734V15.7734Z" stroke="#202026" stroke-width="1.25" stroke-linecap="round" stroke-linejoin="round"/>
<path d="M10.5 10.9375C11.0178 10.9375 11.4375 10.5178 11.4375 10C11.4375 9.48223 11.0178 9.0625 10.5 9.0625C9.98223 9.0625 9.5625 9.48223 9.5625 10C9.5625 10.5178 9.98223 10.9375 10.5 10.9375Z" fill="#202026"/>
<path d="M6.75 10.9375C7.26777 10.9375 7.6875 10.5178 7.6875 10C7.6875 9.48223 7.26777 9.0625 6.75 9.0625C6.23223 9.0625 5.8125 9.48223 5.8125 10C5.8125 10.5178 6.23223 10.9375 6.75 10.9375Z" fill="#202026"/>
<path d="M14.25 10.9375C14.7678 10.9375 15.1875 10.5178 15.1875 10C15.1875 9.48223 14.7678 9.0625 14.25 9.0625C13.7322 9.0625 13.3125 9.48223 13.3125 10C13.3125 10.5178 13.7322 10.9375 14.25 10.9375Z" fill="#202026"/>
</svg>
