<svg width="29" height="29" viewBox="0 0 29 29" fill="none" xmlns="http://www.w3.org/2000/svg">
<path fill-rule="evenodd" clip-rule="evenodd" d="M3.1212 12.5739C2.25874 12.9055 1.82838 13.8735 2.15998 14.7359L5.29043 22.8781C5.62202 23.7406 6.59 24.1709 7.45247 23.8393L26.6819 16.4461C27.5444 16.1145 27.9747 15.1465 27.6431 14.284L26.5203 11.3636C25.9299 11.5236 25.2968 11.2011 25.0663 10.6016C24.8358 10.002 25.0897 9.33847 25.6353 9.06173L24.5127 6.1419C24.1811 5.27943 23.2131 4.84908 22.3506 5.18068L3.1212 12.5739Z" fill="#428FE8"/>
<path fill-rule="evenodd" clip-rule="evenodd" d="M26.808 16.3894L22.1192 18.1922L17.7881 6.92725L22.4377 5.13958C23.3002 4.80798 24.2682 5.23833 24.5998 6.1008L25.7224 9.02082C25.1607 9.30391 24.8941 9.97226 25.1246 10.5717C25.3551 11.1712 26.0008 11.4888 26.6075 11.3227L27.7302 14.2429C28.0568 15.0923 27.6444 16.044 26.808 16.3894Z" fill="#F5B840"/>
<path fill-rule="evenodd" clip-rule="evenodd" d="M2.78831 12.4023C1.8643 12.4023 1.11523 13.1514 1.11523 14.0754V17.2075C1.72704 17.2834 2.20057 17.805 2.20057 18.4373C2.20057 19.0695 1.72704 19.5911 1.11523 19.6671V22.7986C1.11523 23.7226 1.8643 24.4717 2.78831 24.4717H26.2114C27.1354 24.4717 27.8845 23.7226 27.8845 22.7986V19.6704C27.2584 19.6079 26.7695 19.0796 26.7695 18.4373C26.7695 17.7949 27.2584 17.2667 27.8845 17.2042V14.0754C27.8845 13.1514 27.1354 12.4023 26.2114 12.4023H2.78831Z" fill="#59A6FF"/>
<path fill-rule="evenodd" clip-rule="evenodd" d="M21.23 12.4023V24.4717H26.2122C27.1362 24.4717 27.8853 23.7226 27.8853 22.7986V19.6704C27.2592 19.6079 26.7703 19.0796 26.7703 18.4373C26.7703 17.7949 27.2592 17.2667 27.8853 17.2042V14.0754C27.8853 13.1514 27.1362 12.4023 26.2122 12.4023H21.23Z" fill="#FFCE54"/>
<path d="M16.0591 17.4668V17.0488H18.2717V17.4668H17.4165V19.8251H16.918V17.4668H16.0591Z" fill="#EBF2F9"/>
<path d="M13.9766 19.8251V17.0488H15.7827V17.4668H14.4751V18.2261H15.6868V18.644H14.4751V19.4033H15.7903V19.8251H13.9766Z" fill="#EBF2F9"/>
<path d="M11.5039 19.8251V17.0488H12.0024V18.3258H12.0408L13.126 17.0488H13.7357L12.662 18.2951L13.7472 19.8251H13.1451L12.313 18.6325L12.0024 18.9968V19.8251H11.5039Z" fill="#EBF2F9"/>
<path d="M10.6503 17.9847C10.5909 17.6511 10.3243 17.4594 9.9869 17.4594C9.53249 17.4594 9.21039 17.8083 9.2123 18.4372C9.21039 19.0757 9.53441 19.4151 9.9869 19.4151C10.3167 19.4151 10.5832 19.231 10.6503 18.905H11.1526C11.0759 19.4381 10.6369 19.8637 9.97923 19.8637C9.24681 19.8637 8.70805 19.3326 8.70997 18.4372C8.70805 17.5399 9.25257 17.0107 9.97923 17.0107C10.5928 17.0107 11.0663 17.3674 11.1526 17.9847H10.6503Z" fill="#EBF2F9"/>
<path d="M8.3403 17.0488V19.8251H7.8418V17.0488H8.3403Z" fill="#EBF2F9"/>
<path d="M5.31689 17.4668V17.0488H7.52948V17.4668H6.67435V19.8251H6.17585V17.4668H5.31689Z" fill="#EBF2F9"/>
<rect x="7.79883" y="21.3999" width="7.99177" height="0.493994" rx="0.246997" fill="#428FE8"/>
<path d="M3.78896 14.8534C3.83387 14.732 4.00556 14.732 4.05047 14.8534L4.19269 15.2377C4.20681 15.2759 4.2369 15.306 4.27506 15.3201L4.6594 15.4623C4.78079 15.5072 4.78079 15.6789 4.6594 15.7238L4.27506 15.866C4.2369 15.8802 4.20681 15.9102 4.19269 15.9484L4.05047 16.3327C4.00556 16.4541 3.83387 16.4541 3.78896 16.3327L3.64674 15.9484C3.63262 15.9102 3.60253 15.8802 3.56437 15.866L3.18003 15.7238C3.05864 15.6789 3.05864 15.5072 3.18003 15.4623L3.56437 15.3201C3.60253 15.306 3.63262 15.2759 3.64674 15.2377L3.78896 14.8534Z" fill="#428FE8"/>
<path d="M19.8533 17.3432C19.8892 17.2461 20.0265 17.2461 20.0625 17.3432L20.1871 17.6799C20.1984 17.7104 20.2224 17.7345 20.253 17.7458L20.5896 17.8704C20.6867 17.9063 20.6867 18.0436 20.5896 18.0796L20.253 18.2041C20.2224 18.2154 20.1984 18.2395 20.1871 18.27L20.0625 18.6067C20.0265 18.7038 19.8892 18.7038 19.8533 18.6067L19.7287 18.27C19.7174 18.2395 19.6933 18.2154 19.6628 18.2041L19.3262 18.0796C19.229 18.0436 19.229 17.9063 19.3262 17.8704L19.6628 17.7458C19.6933 17.7345 19.7174 17.7104 19.7287 17.6799L19.8533 17.3432Z" fill="#428FE8"/>
<path d="M18.2478 13.6238C18.2658 13.5752 18.3345 13.5752 18.3524 13.6238L18.4298 13.8328C18.4355 13.8481 18.4475 13.8601 18.4628 13.8658L18.6718 13.9432C18.7204 13.9611 18.7204 14.0298 18.6718 14.0478L18.4628 14.1251C18.4475 14.1308 18.4355 14.1428 18.4298 14.1581L18.3524 14.3671C18.3345 14.4157 18.2658 14.4157 18.2478 14.3671L18.1705 14.1581C18.1648 14.1428 18.1528 14.1308 18.1375 14.1251L17.9285 14.0478C17.8799 14.0298 17.8799 13.9611 17.9285 13.9432L18.1375 13.8658C18.1528 13.8601 18.1648 13.8481 18.1705 13.8328L18.2478 13.6238Z" fill="#428FE8"/>
</svg>
