<svg width="24" height="24" viewBox="0 0 24 24" fill="none" xmlns="http://www.w3.org/2000/svg">
<path d="M17.1032 5.00333H12.2232C12.1214 4.9936 12.0188 5.00524 11.9218 5.0375C11.8249 5.06975 11.7357 5.12192 11.6601 5.19066C11.5845 5.25939 11.5241 5.34317 11.4827 5.43662C11.4414 5.53008 11.42 5.63114 11.42 5.73333C11.42 5.83553 11.4414 5.93659 11.4827 6.03004C11.5241 6.1235 11.5845 6.20728 11.6601 6.27601C11.7357 6.34474 11.8249 6.39691 11.9218 6.42917C12.0188 6.46143 12.1214 6.47307 12.2232 6.46333H13.6432L9.56317 16.7033H7.80317C7.70145 16.6936 7.59881 16.7052 7.50184 16.7375C7.40488 16.7698 7.31572 16.8219 7.2401 16.8907C7.16448 16.9594 7.10405 17.0432 7.06271 17.1366C7.02136 17.2301 7 17.3311 7 17.4333C7 17.5355 7.02136 17.6366 7.06271 17.73C7.10405 17.8235 7.16448 17.9073 7.2401 17.976C7.31572 18.0447 7.40488 18.0969 7.50184 18.1292C7.59881 18.1614 7.70145 18.1731 7.80317 18.1633H12.6898C12.7916 18.1731 12.8942 18.1614 12.9912 18.1292C13.0881 18.0969 13.1773 18.0447 13.2529 17.976C13.3285 17.9073 13.389 17.8235 13.4303 17.73C13.4717 17.6366 13.493 17.5355 13.493 17.4333C13.493 17.3311 13.4717 17.2301 13.4303 17.1366C13.389 17.0432 13.3285 16.9594 13.2529 16.8907C13.1773 16.8219 13.0881 16.7698 12.9912 16.7375C12.8942 16.7052 12.7916 16.6936 12.6898 16.7033H11.1632L15.2498 6.46333H17.1032C17.2049 6.47307 17.3075 6.46143 17.4045 6.42917C17.5015 6.39691 17.5906 6.34474 17.6663 6.27601C17.7419 6.20728 17.8023 6.1235 17.8436 6.03004C17.885 5.93659 17.9064 5.83553 17.9064 5.73333C17.9064 5.63114 17.885 5.53008 17.8436 5.43662C17.8023 5.34317 17.7419 5.25939 17.6663 5.19066C17.5906 5.12192 17.5015 5.06975 17.4045 5.0375C17.3075 5.00524 17.2049 4.9936 17.1032 5.00333Z" fill="#202026"/>
</svg>
