<svg width="20" height="20" viewBox="0 0 20 20" fill="none" xmlns="http://www.w3.org/2000/svg">
<path d="M10.0026 7.5C9.33956 7.5 8.70368 7.76339 8.23484 8.23223C7.766 8.70107 7.5026 9.33696 7.5026 10C7.5026 10.663 7.766 11.2989 8.23484 11.7678C8.70368 12.2366 9.33956 12.5 10.0026 12.5C10.6656 12.5 11.3015 12.2366 11.7704 11.7678C12.2392 11.2989 12.5026 10.663 12.5026 10C12.5026 9.33696 12.2392 8.70107 11.7704 8.23223C11.3015 7.76339 10.6656 7.5 10.0026 7.5ZM10.0026 14.1667C8.89754 14.1667 7.83773 13.7277 7.05633 12.9463C6.27492 12.1649 5.83594 11.1051 5.83594 10C5.83594 8.89493 6.27492 7.83512 7.05633 7.05372C7.83773 6.27232 8.89754 5.83333 10.0026 5.83333C11.1077 5.83333 12.1675 6.27232 12.9489 7.05372C13.7303 7.83512 14.1693 8.89493 14.1693 10C14.1693 11.1051 13.7303 12.1649 12.9489 12.9463C12.1675 13.7277 11.1077 14.1667 10.0026 14.1667ZM10.0026 3.75C5.83594 3.75 2.2776 6.34167 0.835938 10C2.2776 13.6583 5.83594 16.25 10.0026 16.25C14.1693 16.25 17.7276 13.6583 19.1693 10C17.7276 6.34167 14.1693 3.75 10.0026 3.75Z" fill="#868890"/>
</svg>
