<svg width="24" height="24" viewBox="0 0 24 24" fill="none" xmlns="http://www.w3.org/2000/svg">
<path d="M12.0007 16.8754C14.0717 16.8754 15.7505 15.1966 15.7505 13.1256C15.7505 11.0546 14.0717 9.37573 12.0007 9.37573C9.92972 9.37573 8.25085 11.0546 8.25085 13.1256C8.25085 15.1966 9.92972 16.8754 12.0007 16.8754Z" stroke="currentColor" stroke-width="1.49994" stroke-linecap="round" stroke-linejoin="round"/>
<path d="M18.3753 10.877C19.2488 10.8755 20.1105 11.0782 20.8918 11.4688C21.673 11.8594 22.3522 12.4272 22.8751 13.1269" stroke="currentColor" stroke-width="1.49994" stroke-linecap="round" stroke-linejoin="round"/>
<path d="M1.12494 13.1269C1.64785 12.4272 2.32703 11.8594 3.10829 11.4688C3.88954 11.0782 4.75128 10.8755 5.62475 10.877" stroke="currentColor" stroke-width="1.49994" stroke-linecap="round" stroke-linejoin="round"/>
<path d="M6.60071 20.2504C7.09458 19.239 7.86261 18.3866 8.81728 17.7903C9.77196 17.1941 10.8749 16.8779 12.0005 16.8779C13.1261 16.8779 14.229 17.1941 15.1837 17.7903C16.1384 18.3866 16.9064 19.239 17.4003 20.2504" stroke="currentColor" stroke-width="1.49994" stroke-linecap="round" stroke-linejoin="round"/>
<path d="M5.62517 10.8757C5.0558 10.8763 4.49802 10.7148 4.017 10.4102C3.53599 10.1055 3.15161 9.67027 2.90877 9.15528C2.66594 8.64029 2.57468 8.06682 2.64566 7.50189C2.71663 6.93696 2.94692 6.40389 3.3096 5.96497C3.67228 5.52606 4.15239 5.19942 4.69381 5.02322C5.23524 4.84703 5.81563 4.82856 6.36717 4.96997C6.9187 5.11137 7.4186 5.40682 7.80846 5.82179C8.19832 6.23675 8.46204 6.7541 8.5688 7.31337" stroke="currentColor" stroke-width="1.49994" stroke-linecap="round" stroke-linejoin="round"/>
<path d="M15.4277 7.31337C15.5345 6.7541 15.7982 6.23675 16.1881 5.82179C16.5779 5.40682 17.0778 5.11137 17.6294 4.96997C18.1809 4.82856 18.7613 4.84703 19.3027 5.02322C19.8441 5.19942 20.3242 5.52606 20.6869 5.96497C21.0496 6.40389 21.2799 6.93696 21.3509 7.50189C21.4219 8.06682 21.3306 8.64029 21.0878 9.15528C20.8449 9.67027 20.4605 10.1055 19.9795 10.4102C19.4985 10.7148 18.9407 10.8763 18.3714 10.8757" stroke="currentColor" stroke-width="1.49994" stroke-linecap="round" stroke-linejoin="round"/>
</svg>
