<svg width="24" height="24" viewBox="0 0 24 24" fill="none" xmlns="http://www.w3.org/2000/svg">
<path d="M18.6 1H5.4C2.96995 1 1 2.96995 1 5.4V18.6C1 21.0301 2.96995 23 5.4 23H18.6C21.0301 23 23 21.0301 23 18.6V5.4C23 2.96995 21.0301 1 18.6 1Z" fill="#DADADA"/>
<path fill-rule="evenodd" clip-rule="evenodd" d="M12.3043 15.8492C11.2924 15.8492 10.4705 14.9872 10.4705 13.9237C10.4705 12.8611 11.2924 11.9992 12.3043 11.9992C13.3163 11.9992 14.1372 12.8611 14.1372 13.9237C14.1372 14.9872 13.3163 15.8492 12.3043 15.8492ZM9.80339 10.3475V5.58252H7.41504V18.1033H9.83469V17.1222C9.83469 17.1222 10.5495 18.4158 12.3536 18.4158C12.3536 18.4158 16.5817 18.2601 16.5817 13.7439C16.5817 13.7439 16.4252 9.16509 12.3536 9.16509C12.3536 9.16509 11.0169 9.16509 9.80339 10.3475Z" fill="white"/>
</svg>
