<svg width="32" height="32" viewBox="0 0 32 32" fill="none" xmlns="http://www.w3.org/2000/svg">
<path d="M11.7617 20.2375L20.2367 11.75" stroke="#495057" stroke-width="2" stroke-linecap="round" stroke-linejoin="round"/>
<path d="M18.1266 22.3625L14.5891 25.9C14.0318 26.4573 13.3702 26.8994 12.642 27.201C11.9139 27.5026 11.1335 27.6578 10.3453 27.6578C8.7536 27.6578 7.22708 27.0255 6.10157 25.9C4.97606 24.7745 4.34375 23.248 4.34375 21.6562C4.34375 20.0645 4.97606 18.538 6.10157 17.4125L9.63907 13.875" stroke="#495057" stroke-width="2" stroke-linecap="round" stroke-linejoin="round"/>
<path d="M22.3625 18.1246L25.9 14.5871C27.0255 13.4616 27.6578 11.9351 27.6578 10.3434C27.6578 8.75165 27.0255 7.22513 25.9 6.09962C24.7745 4.9741 23.248 4.3418 21.6562 4.3418C20.0645 4.3418 18.538 4.9741 17.4125 6.09962L13.875 9.63712" stroke="#495057" stroke-width="2" stroke-linecap="round" stroke-linejoin="round"/>
</svg>
