<svg width="24" height="24" viewBox="0 0 24 24" fill="none" xmlns="http://www.w3.org/2000/svg">
<path d="M14.0363 18.3648L12.6489 20.6803C12.581 20.7908 12.4858 20.8821 12.3726 20.9454C12.2594 21.0087 12.1318 21.0419 12.0021 21.0419C11.8723 21.0419 11.7448 21.0087 11.6315 20.9454C11.5183 20.8821 11.4232 20.7908 11.3552 20.6803L9.96777 18.3648C9.90251 18.2537 9.80938 18.1615 9.69758 18.0973C9.58578 18.0332 9.45918 17.9994 9.3303 17.9992H3.75241C3.55351 17.9992 3.36275 17.9202 3.2221 17.7795C3.08146 17.6389 3.00244 17.4481 3.00244 17.2492V5.24972C3.00244 5.05082 3.08146 4.86006 3.2221 4.71942C3.36275 4.57877 3.55351 4.49976 3.75241 4.49976H20.2517C20.4506 4.49976 20.6414 4.57877 20.782 4.71942C20.9227 4.86006 21.0017 5.05082 21.0017 5.24972V17.2492C21.0017 17.4481 20.9227 17.6389 20.782 17.7795C20.6414 17.9202 20.4506 17.9992 20.2517 17.9992H14.6738C14.5449 17.9994 14.4183 18.0332 14.3065 18.0973C14.1947 18.1615 14.1016 18.2537 14.0363 18.3648V18.3648Z" stroke="#202026" stroke-width="1.49994" stroke-linecap="round" stroke-linejoin="round"/>
<path d="M8.99951 9.7522H14.9993" stroke="#202026" stroke-width="1.49994" stroke-linecap="round" stroke-linejoin="round"/>
<path d="M8.99951 12.7507H14.9993" stroke="#202026" stroke-width="1.49994" stroke-linecap="round" stroke-linejoin="round"/>
</svg>
