<svg width="36" height="36" viewBox="0 0 36 36" fill="none" xmlns="http://www.w3.org/2000/svg">
<rect width="36" height="36" rx="18" fill="#EDF0FE"/>
<path fill-rule="evenodd" clip-rule="evenodd" d="M22.8872 12.6435C22.8872 13.2863 22.7607 13.9229 22.5148 14.5168C22.2688 15.1107 21.9083 15.6504 21.4538 16.105C20.9993 16.5595 20.4597 16.9202 19.8659 17.1662C19.272 17.4123 18.6355 17.539 17.9927 17.539C16.6944 17.5392 15.4493 17.0236 14.5312 16.1057C13.6132 15.1878 13.0973 13.9428 13.0972 12.6445C13.0971 12.0017 13.2237 11.3652 13.4696 10.7713C13.7155 10.1773 14.076 9.63768 14.5305 9.18309C15.4484 8.265 16.6934 7.74916 17.9917 7.74902C19.2899 7.74889 20.535 8.26449 21.4531 9.18238C22.3712 10.1003 22.887 11.3453 22.8872 12.6435ZM17.9922 19.0365C10.9432 19.0365 8.20117 23.5225 8.20117 25.6095C8.20117 27.6955 14.0382 28.2515 17.9922 28.2515C21.9462 28.2515 27.7832 27.6955 27.7832 25.6095C27.7832 23.5225 25.0412 19.0365 17.9922 19.0365Z" fill="#445CE1"/>
</svg>
