<svg width="24" height="24" viewBox="0 0 24 24" fill="none" xmlns="http://www.w3.org/2000/svg">
<g clip-path="url(#clip0_3444_4023)">
<rect x="1" y="1" width="22" height="22" rx="4" fill="white" stroke="#EDEDEF"/>
<path d="M2.97656 8.92969H7.72266V10.1406H4.44141V11.8594H7.47852V13.0703H4.44141V14.7891H7.73242V16H2.97656V8.92969ZM8.5918 8.92969H14.3828V10.1406H12.2148V16H10.7598V10.1406H8.5918V8.92969ZM19.7051 11.3906C19.666 11.1335 19.5765 10.9105 19.4365 10.7217C19.2965 10.5296 19.1175 10.3831 18.8994 10.2822C18.6813 10.1813 18.4355 10.1309 18.1621 10.1309C17.7943 10.1309 17.472 10.2236 17.1953 10.4092C16.9219 10.5915 16.7103 10.8584 16.5605 11.21C16.4108 11.5583 16.3359 11.9766 16.3359 12.4648C16.3359 12.9629 16.4108 13.3877 16.5605 13.7393C16.7103 14.0876 16.9219 14.3512 17.1953 14.5303C17.4688 14.7093 17.7878 14.7988 18.1523 14.7988C18.5592 14.7988 18.901 14.6914 19.1777 14.4766C19.4577 14.2617 19.6335 13.9655 19.7051 13.5879L21.1895 13.5977C21.1341 14.0436 20.9762 14.457 20.7158 14.8379C20.4554 15.2188 20.1038 15.5247 19.6611 15.7559C19.2184 15.9837 18.709 16.0977 18.1328 16.0977C17.498 16.0977 16.9316 15.9544 16.4336 15.668C15.9355 15.3783 15.5449 14.96 15.2617 14.4131C14.9818 13.8662 14.8418 13.2168 14.8418 12.4648C14.8418 11.7161 14.9834 11.0684 15.2666 10.5215C15.5531 9.97135 15.9453 9.55306 16.4434 9.2666C16.9447 8.97689 17.5078 8.83203 18.1328 8.83203C18.6764 8.83203 19.168 8.93294 19.6074 9.13477C20.0469 9.33659 20.4033 9.63118 20.6768 10.0186C20.9535 10.4027 21.1243 10.86 21.1895 11.3906H19.7051Z" fill="#DADADA"/>
</g>
<defs>
<clipPath id="clip0_3444_4023">
<rect width="24" height="24" fill="white"/>
</clipPath>
</defs>
</svg>
