<svg width="24" height="24" viewBox="0 0 24 24" fill="none" xmlns="http://www.w3.org/2000/svg">
<path d="M14.2513 19.5014V15.0014C14.2513 14.8025 14.1723 14.6117 14.0316 14.4711C13.891 14.3304 13.7002 14.2514 13.5013 14.2514H10.5013C10.3024 14.2514 10.1116 14.3304 9.97095 14.4711C9.8303 14.6117 9.75128 14.8025 9.75128 15.0014V19.5014C9.75128 19.7003 9.67226 19.8911 9.53161 20.0318C9.39096 20.1724 9.20019 20.2514 9.00128 20.2514H4.50128C4.30237 20.2514 4.1116 20.1724 3.97095 20.0318C3.8303 19.8911 3.75128 19.7003 3.75128 19.5014V10.8295C3.75296 10.7258 3.77539 10.6233 3.81725 10.5283C3.85911 10.4334 3.91956 10.3477 3.99503 10.2764L11.495 3.4608C11.6333 3.33431 11.8139 3.26416 12.0013 3.26416C12.1887 3.26416 12.3693 3.33431 12.5075 3.4608L20.0075 10.2764C20.083 10.3477 20.1434 10.4334 20.1853 10.5283C20.2272 10.6233 20.2496 10.7258 20.2513 10.8295V19.5014C20.2513 19.7003 20.1723 19.8911 20.0316 20.0318C19.891 20.1724 19.7002 20.2514 19.5013 20.2514H15.0013C14.8024 20.2514 14.6116 20.1724 14.471 20.0318C14.3303 19.8911 14.2513 19.7003 14.2513 19.5014Z" stroke="#202026" stroke-width="1.5" stroke-linecap="round" stroke-linejoin="round"/>
</svg>
