<svg width="58" height="58" viewBox="0 0 58 58" fill="none" xmlns="http://www.w3.org/2000/svg">
<path d="M28.75 0C44.6286 0 57.5 12.8714 57.5 28.75C57.5 44.6286 44.6286 57.5 28.75 57.5C12.8714 57.5 0 44.6286 0 28.75C0 12.8714 12.8714 0 28.75 0ZM38.9131 18.3454L24.6819 32.5766L18.5869 26.4788C18.3199 26.2116 18.003 25.9997 17.6542 25.8551C17.3054 25.7104 16.9315 25.6359 16.5538 25.6358C15.7912 25.6355 15.0597 25.9382 14.5202 26.4773C13.9807 27.0164 13.6775 27.7477 13.6772 28.5104C13.677 29.273 13.9797 30.0045 14.5188 30.544L22.448 38.4733C22.7417 38.7671 23.0904 39.0002 23.4742 39.1592C23.858 39.3182 24.2693 39.4 24.6848 39.4C25.1002 39.4 25.5115 39.3182 25.8953 39.1592C26.2791 39.0002 26.6278 38.7671 26.9215 38.4733L42.9813 22.4135C43.5207 21.874 43.8238 21.1424 43.8238 20.3794C43.8238 19.6165 43.5207 18.8848 42.9813 18.3454C42.4418 17.8059 41.7101 17.5028 40.9472 17.5028C40.1843 17.5028 39.4526 17.8059 38.9131 18.3454Z" fill="#ACB8FB"/>
</svg>
