<svg width="24" height="24" viewBox="0 0 24 24" fill="none" xmlns="http://www.w3.org/2000/svg">
<path fill-rule="evenodd" clip-rule="evenodd" d="M14.5471 0.524724C16.6589 -0.648217 19.2624 0.211943 20.3729 2.44052C21.4834 4.66911 20.6824 7.46463 18.5705 8.63757L16.8409 9.61503C18.3338 9.67365 19.7539 10.5534 20.5003 12.0587C21.6108 14.3068 20.8098 17.0828 18.6979 18.2557L9.44937 23.4753C7.33749 24.6482 4.73405 23.7881 3.62355 21.5595C2.51304 19.3309 3.33232 16.5354 5.42598 15.3625L7.15555 14.385C5.66268 14.3264 4.24261 13.4467 3.49621 11.9414C2.38564 9.69327 3.20492 6.91731 5.29858 5.74437L14.5471 0.524724Z" fill="#FF3D3D"/>
<path fill-rule="evenodd" clip-rule="evenodd" d="M9.75 9.33228L14.75 12.6223L9.75 15.895V9.33228Z" fill="white"/>
</svg>
