<svg width="80" height="80" viewBox="0 0 80 80" fill="none" xmlns="http://www.w3.org/2000/svg">
<path d="M40 70C56.5685 70 70 56.5685 70 40C70 23.4315 56.5685 10 40 10C23.4315 10 10 23.4315 10 40C10 56.5685 23.4315 70 40 70Z" fill="#EDEDEF"/>
<path d="M28.75 37.5C30.8211 37.5 32.5 35.8211 32.5 33.75C32.5 31.6789 30.8211 30 28.75 30C26.6789 30 25 31.6789 25 33.75C25 35.8211 26.6789 37.5 28.75 37.5Z" fill="#C7C8CC"/>
<path d="M51.25 37.5C53.3211 37.5 55 35.8211 55 33.75C55 31.6789 53.3211 30 51.25 30C49.1789 30 47.5 31.6789 47.5 33.75C47.5 35.8211 49.1789 37.5 51.25 37.5Z" fill="#C7C8CC"/>
<path d="M45 52C45 54.0137 44.3866 55.7983 43.4426 57.0569C42.4989 58.3151 41.2715 59 40 59C38.7285 59 37.5011 58.3151 36.5574 57.0569C35.6134 55.7983 35 54.0137 35 52C35 49.9863 35.6134 48.2017 36.5574 46.9431C37.5011 45.6849 38.7285 45 40 45C41.2715 45 42.4989 45.6849 43.4426 46.9431C44.3866 48.2017 45 49.9863 45 52Z" stroke="#C7C8CC" stroke-width="2"/>
</svg>
