<svg width="current" height="current" viewBox="0 0 24 24" fill="none" xmlns="http://www.w3.org/2000/svg">
<path d="M12 21C16.9706 21 21 16.9706 21 12C21 7.02944 16.9706 3 12 3C7.02944 3 3 7.02944 3 12C3 16.9706 7.02944 21 12 21Z" fill="#C7C8CC" stroke="#C7C8CC" stroke-width="1.5" stroke-miterlimit="10"/>
<path fill-rule="evenodd" clip-rule="evenodd" d="M12.75 7.5C12.75 7.08579 12.4142 6.75 12 6.75C11.5858 6.75 11.25 7.08579 11.25 7.5V12.75C11.25 13.1642 11.5858 13.5 12 13.5C12.4142 13.5 12.75 13.1642 12.75 12.75V7.5ZM13.125 16.125C13.125 16.7463 12.6213 17.25 12 17.25C11.3787 17.25 10.875 16.7463 10.875 16.125C10.875 15.5037 11.3787 15 12 15C12.6213 15 13.125 15.5037 13.125 16.125Z" fill="white"/>
</svg>
