<svg width="29" height="29" viewBox="0 0 29 29" fill="none" xmlns="http://www.w3.org/2000/svg">
<path d="M7.8131 11.0114C7.83887 10.7751 8.03839 10.5962 8.27603 10.5962H9.57013C9.80777 10.5962 10.0073 10.7751 10.0331 11.0114L10.4147 14.5099C10.5116 15.3977 9.81619 16.1731 8.92308 16.1731C8.02997 16.1731 7.33459 15.3977 7.43144 14.5099L7.8131 11.0114Z" fill="#DADADA"/>
<path d="M6.70171 15.5144C6.75394 14.9399 7.23564 14.5 7.81252 14.5H10.0341C10.611 14.5 11.0927 14.9399 11.1449 15.5144L11.9665 24.5522C12.1292 26.3417 10.7202 27.8846 8.9233 27.8846C7.12642 27.8846 5.71741 26.3417 5.88009 24.5522L6.70171 15.5144Z" fill="#3DCBDB"/>
<path d="M18.9669 11.0114C18.9927 10.7751 19.1922 10.5962 19.4298 10.5962H20.7239C20.9616 10.5962 21.1611 10.7751 21.1869 11.0114L21.5685 14.5099C21.6654 15.3977 20.97 16.1731 20.0769 16.1731C19.1838 16.1731 18.4884 15.3977 18.5852 14.5099L18.9669 11.0114Z" fill="#DADADA"/>
<path d="M17.8555 15.5144C17.9078 14.9399 18.3894 14.5 18.9663 14.5H21.1879C21.7648 14.5 22.2465 14.9399 22.2987 15.5144L23.1203 24.5522C23.283 26.3417 21.874 27.8846 20.0771 27.8846C18.2802 27.8846 16.8712 26.3417 17.0339 24.5522L17.8555 15.5144Z" fill="#3DCBDB"/>
<ellipse cx="8.92296" cy="6.13447" rx="4.46154" ry="5.01923" fill="#C7C8CC"/>
<path fill-rule="evenodd" clip-rule="evenodd" d="M19.2001 1.70573C19.2001 1.41038 19.4925 1.11523 20.0768 1.11523C20.661 1.11523 20.9534 1.41038 20.9534 1.70573V7.02021C20.9534 7.61085 22.4152 7.61085 22.4152 7.02021V2.00098C22.4154 1.70573 22.5911 1.17428 23.2928 1.41048C24.1699 1.70573 24.7546 4.65822 24.4623 7.61071C24.2284 9.9727 21.5381 11.1537 20.0768 11.1537C18.6154 11.1537 15.9252 9.9727 15.6913 7.61071C15.3989 4.65822 15.9837 1.70573 16.8607 1.41048C17.5624 1.17428 17.7382 1.70573 17.7383 2.00098V7.02021C17.7383 7.61085 19.2001 7.61085 19.2001 7.02021V1.70573Z" fill="#C7C8CC"/>
</svg>
