<svg width="current" height="current" viewBox="0 0 29 29" fill="none" xmlns="http://www.w3.org/2000/svg">
<path d="M4.53672 25.8363C4.7005 26.2706 5.11617 26.5581 5.58037 26.5581H23.4203C23.8845 26.5581 24.3001 26.2706 24.4639 25.8363L26.4731 20.5079C26.7482 19.7784 26.2091 18.9989 25.4295 18.9989H3.57114C2.7915 18.9989 2.25241 19.7784 2.52748 20.5079L4.53672 25.8363Z" fill="#D69F6E"/>
<path d="M8.70508 17.2891H20.2942V26.5585H8.70508V17.2891Z" fill="#A6BBC9"/>
<path d="M3.96927 11.7473C4.13097 11.3091 4.54859 11.0181 5.01568 11.0181H23.984C24.4511 11.0181 24.8687 11.3091 25.0304 11.7473L27.6278 18.786C27.8965 19.5142 27.3576 20.2875 26.5813 20.2875H2.41836C1.64208 20.2875 1.10321 19.5142 1.37195 18.786L3.96927 11.7473Z" fill="#EEB57E"/>
<path d="M7.97412 11.0181H21.0259V20.2875H7.97412V11.0181Z" fill="#D4E3EB"/>
<path d="M12.5657 18.9995H16.4338L17.0039 20.2878H11.9956L12.5657 18.9995Z" fill="#8EA4B2"/>
<path d="M14.545 9.40382C14.425 7.19134 12.966 2.79348 8.08923 2.90187C7.87801 4.82839 8.87345 8.82591 14.545 9.40382Z" fill="#68EA9E"/>
<path d="M21.0259 2.8999C20.906 5.11237 19.447 9.51023 14.5702 9.40184C14.359 7.47532 15.3544 3.4778 21.0259 2.8999Z" fill="#4ED988"/>
</svg>
