<svg width="21" height="20" viewBox="0 0 21 20" fill="none" xmlns="http://www.w3.org/2000/svg">
<path d="M7.85156 12.6484L13.1484 7.34375" stroke="#202026" stroke-width="1.25" stroke-linecap="round" stroke-linejoin="round"/>
<path d="M11.833 13.9766L9.62207 16.1875C9.27376 16.5358 8.86026 16.8121 8.40517 17.0006C7.95008 17.1891 7.46232 17.2861 6.96973 17.2861C5.97491 17.2861 5.02083 16.8909 4.31739 16.1875C3.61394 15.4841 3.21875 14.53 3.21875 13.5352C3.21875 12.5403 3.61394 11.5863 4.31739 10.8828L6.52832 8.67188" stroke="#202026" stroke-width="1.25" stroke-linecap="round" stroke-linejoin="round"/>
<path d="M14.4766 11.3281L16.6875 9.11719C17.3909 8.41375 17.7861 7.45967 17.7861 6.46485C17.7861 5.47003 17.3909 4.51595 16.6875 3.8125C15.9841 3.10906 15.03 2.71387 14.0352 2.71387C13.0403 2.71387 12.0863 3.10906 11.3828 3.8125L9.17188 6.02344" stroke="#202026" stroke-width="1.25" stroke-linecap="round" stroke-linejoin="round"/>
</svg>
