<svg width="29" height="29" viewBox="0 0 29 29" fill="none" xmlns="http://www.w3.org/2000/svg">
<path d="M9.48145 27.8845V23.3462V18.7871H18.6933V27.8845H9.48145Z" fill="#7F8E9C"/>
<path d="M16.7163 27.8845V23.3462V18.7871H18.6934V27.8845H16.7163Z" fill="#6B7A88"/>
<path d="M10.3188 18.7922V17.4278V15.9639H17.8558V18.7922H10.3188Z" fill="#E6ECF0"/>
<path d="M15.9971 18.7922V17.4278V15.9639H17.8558V18.7922H15.9971Z" fill="#C8CED2"/>
<path d="M10.3022 16.0158H17.8681C17.6184 12.4034 17.0678 5.04711 16.8631 4.52078C16.6072 3.86288 15.1818 3.00391 13.3543 1.94393C11.5268 0.883953 10.5399 1.56019 10.5399 3.00391C10.5399 4.1589 10.3815 12.1597 10.3022 16.0158Z" fill="#F2545E"/>
<path fill-rule="evenodd" clip-rule="evenodd" d="M15.5576 3.28613C15.7249 3.71923 15.9889 4.54547 16.1163 5.46175C16.189 5.98521 16.324 7.8489 16.4793 9.99291C16.6287 12.0555 16.7969 14.3776 16.9465 16.0154H17.8685C17.6188 12.403 17.0681 5.04673 16.8634 4.5204C16.726 4.167 16.2511 3.75557 15.5576 3.28613Z" fill="#F2545E"/>
<path d="M21.2075 2.52871C21.3871 2.04317 22.0739 2.04317 22.2535 2.52871L22.6883 3.70352C22.7447 3.85617 22.8651 3.97652 23.0178 4.03301L24.1926 4.46773C24.6781 4.64739 24.6781 5.33413 24.1926 5.51379L23.0178 5.94851C22.8651 6.005 22.7447 6.12535 22.6883 6.278L22.2535 7.45281C22.0739 7.93835 21.3871 7.93835 21.2075 7.45281L20.7728 6.278C20.7163 6.12535 20.5959 6.005 20.4433 5.94851L19.2685 5.51379C18.7829 5.33413 18.7829 4.64739 19.2685 4.46773L20.4433 4.03301C20.5959 3.97652 20.7163 3.85617 20.7728 3.70352L21.2075 2.52871Z" fill="#FFD452"/>
<path opacity="0.3" d="M11.4316 2.87402L11.4393 4.77645" stroke="white" stroke-width="0.557692" stroke-linecap="round"/>
</svg>
