<svg width="current" height="current" viewBox="0 0 80 80" fill="none" xmlns="http://www.w3.org/2000/svg">
<rect width="80" height="80" rx="40" fill="#4B65F7"/>
<path fill-rule="evenodd" clip-rule="evenodd" d="M49.96 41.494C49.5496 41.5043 49.1412 41.4324 48.759 41.2824C48.3769 41.1325 48.0286 40.9076 47.7347 40.6209C47.4408 40.3342 47.2073 39.9916 47.0479 39.6133C46.8885 39.2349 46.8064 38.8285 46.8066 38.418C46.8067 38.0074 46.889 37.6011 47.0487 37.2228C47.2083 36.8446 47.442 36.5021 47.7361 36.2157C48.0302 35.9292 48.3786 35.7045 48.7609 35.5548C49.1432 35.4051 49.5516 35.3334 49.962 35.344C50.7639 35.3647 51.5261 35.6979 52.0859 36.2725C52.6457 36.8472 52.9588 37.6177 52.9586 38.42C52.9583 39.2222 52.6446 39.9926 52.0845 40.5668C51.5243 41.1411 50.7619 41.4738 49.96 41.494ZM40.132 41.494C39.7213 41.5043 39.3127 41.4324 38.9303 41.2823C38.5478 41.1323 38.1993 40.9072 37.9053 40.6203C37.6112 40.3335 37.3775 39.9906 37.218 39.612C37.0585 39.2335 36.9764 38.8268 36.9765 38.416C36.9767 38.0052 37.059 37.5985 37.2188 37.2201C37.3785 36.8416 37.6124 36.4989 37.9067 36.2122C38.2009 35.9256 38.5496 35.7007 38.9321 35.5509C39.3147 35.4011 39.7233 35.3294 40.134 35.34C40.9365 35.3607 41.6991 35.6941 42.2593 36.2691C42.8194 36.8441 43.1328 37.6152 43.1325 38.418C43.1323 39.2207 42.8184 39.9916 42.2579 40.5662C41.6973 41.1409 40.9345 41.4738 40.132 41.494ZM30.302 41.494C29.8916 41.5043 29.4832 41.4324 29.101 41.2824C28.7189 41.1325 28.3706 40.9076 28.0767 40.6209C27.7828 40.3342 27.5493 39.9916 27.3899 39.6133C27.2305 39.2349 27.1484 38.8285 27.1486 38.418C27.1487 38.0074 27.231 37.6011 27.3907 37.2228C27.5503 36.8446 27.784 36.5021 28.0781 36.2157C28.3722 35.9292 28.7206 35.7045 29.1029 35.5548C29.4852 35.4051 29.8936 35.3334 30.304 35.344C31.1059 35.3647 31.8681 35.6979 32.4279 36.2725C32.9877 36.8472 33.3008 37.6177 33.3006 38.42C33.3003 39.2222 32.9866 39.9926 32.4265 40.5668C31.8663 41.1411 31.1039 41.4738 30.302 41.494ZM40 19C28.334 19 18.842 27.628 18.842 38.234C18.842 42.774 20.762 48.952 26.11 52.94L25.48 59.528C25.4563 59.7708 25.4992 60.0154 25.604 60.2357C25.7087 60.4559 25.8715 60.6435 26.0747 60.7784C26.278 60.9132 26.5141 60.9902 26.7578 61.001C27.0015 61.0119 27.2435 60.9562 27.458 60.84L34.32 57.148C35.174 57.236 37.682 57.468 40 57.468C51.666 57.468 61.158 48.84 61.158 38.234C61.158 27.628 51.666 19 40 19Z" fill="white"/>
<rect width="34" height="16" transform="translate(23 32)" fill="white"/>
<path d="M26.6 35.936L26.552 34.288H31.048C31.1013 34.3627 31.1493 34.4747 31.192 34.624C31.2347 34.7627 31.256 34.912 31.256 35.072C31.256 35.3493 31.192 35.5627 31.064 35.712C30.936 35.8613 30.76 35.936 30.536 35.936H26.6ZM28.024 34.288L28.056 35.936H23.56C23.5067 35.8507 23.4587 35.7387 23.416 35.6C23.3733 35.4613 23.352 35.3067 23.352 35.136C23.352 34.848 23.416 34.6347 23.544 34.496C23.672 34.3573 23.848 34.288 24.072 34.288H28.024ZM26.28 35.504H28.296V43.968C28.2107 44 28.0773 44.0267 27.896 44.048C27.7253 44.08 27.5493 44.096 27.368 44.096C26.9733 44.096 26.6907 44.0267 26.52 43.888C26.36 43.7387 26.28 43.4933 26.28 43.152V35.504ZM35.2884 35.936H35.2084C35.0697 36.32 34.915 36.7573 34.7444 37.248C34.5844 37.7387 34.4137 38.2507 34.2324 38.784C34.051 39.3067 33.8804 39.8133 33.7204 40.304L33.4964 41.296C33.4324 41.4987 33.363 41.7227 33.2884 41.968C33.2244 42.2133 33.1497 42.464 33.0644 42.72C32.9897 42.9653 32.915 43.2 32.8404 43.424C32.7764 43.648 32.7177 43.8453 32.6644 44.016C32.5577 44.048 32.4404 44.0747 32.3124 44.096C32.195 44.128 32.051 44.144 31.8804 44.144C31.539 44.144 31.267 44.08 31.0644 43.952C30.8724 43.8133 30.7764 43.6107 30.7764 43.344C30.7764 43.2267 30.7924 43.104 30.8244 42.976C30.867 42.848 30.9097 42.704 30.9524 42.544C31.059 42.192 31.203 41.7547 31.3844 41.232C31.5657 40.6987 31.763 40.1227 31.9764 39.504C32.1897 38.8853 32.4084 38.2613 32.6324 37.632C32.867 37.0027 33.0857 36.416 33.2884 35.872C33.491 35.3173 33.667 34.8533 33.8164 34.48C33.9444 34.4053 34.1417 34.336 34.4084 34.272C34.675 34.208 34.947 34.176 35.2244 34.176C35.587 34.176 35.9177 34.2293 36.2164 34.336C36.5257 34.4427 36.7177 34.6133 36.7924 34.848C37.0164 35.4347 37.2564 36.1067 37.5124 36.864C37.7684 37.6213 38.0297 38.4107 38.2964 39.232C38.563 40.0533 38.819 40.8533 39.0644 41.632C39.3097 42.4107 39.5284 43.1147 39.7204 43.744C39.6137 43.8613 39.4644 43.9573 39.2724 44.032C39.091 44.1067 38.8777 44.144 38.6324 44.144C38.2804 44.144 38.0244 44.08 37.8644 43.952C37.715 43.8133 37.5977 43.6053 37.5124 43.328L36.8564 41.232L36.6484 40.208C36.4777 39.664 36.307 39.1307 36.1364 38.608C35.9764 38.0747 35.8217 37.5787 35.6724 37.12C35.523 36.6613 35.395 36.2667 35.2884 35.936ZM32.6004 41.68L33.3524 40.096H37.3524L37.6564 41.68H32.6004ZM40.6864 37.648H42.7184V43.888L41.7744 44.016C41.4437 44.016 41.177 43.92 40.9744 43.728C40.7824 43.5253 40.6864 43.264 40.6864 42.944V37.648ZM41.7744 44.016V42.352H46.8624C46.9264 42.4373 46.9797 42.5493 47.0224 42.688C47.0757 42.8267 47.1024 42.9813 47.1024 43.152C47.1024 43.44 47.033 43.6587 46.8944 43.808C46.7664 43.9467 46.5904 44.016 46.3664 44.016H41.7744ZM42.7184 39.92H40.6864V34.288C40.7824 34.2667 40.9157 34.24 41.0864 34.208C41.2677 34.176 41.449 34.16 41.6304 34.16C42.0144 34.16 42.2917 34.2293 42.4624 34.368C42.633 34.496 42.7184 34.7413 42.7184 35.104V39.92ZM49.3718 38.912L51.4678 38.48C52.4491 39.4827 53.3131 40.3787 54.0598 41.168C54.8064 41.9467 55.4198 42.5707 55.8998 43.04C55.8998 43.3813 55.7878 43.6533 55.5638 43.856C55.3504 44.048 55.0998 44.144 54.8118 44.144C54.5024 44.144 54.2411 44.064 54.0278 43.904C53.8251 43.744 53.6224 43.5573 53.4198 43.344L49.3718 38.912ZM51.5638 39.616L49.1318 39.6L54.0758 34.208C54.5664 34.2187 54.9238 34.32 55.1477 34.512C55.3718 34.704 55.4838 34.9387 55.4838 35.216C55.4838 35.4187 55.4304 35.6107 55.3238 35.792C55.2278 35.9733 55.0678 36.1707 54.8438 36.384L51.5638 39.616ZM48.1558 37.552H50.1878V43.984C50.1024 44.0053 49.9691 44.032 49.7878 44.064C49.6171 44.096 49.4358 44.112 49.2438 44.112C48.8598 44.112 48.5824 44.0427 48.4117 43.904C48.2411 43.7547 48.1558 43.5093 48.1558 43.168V37.552ZM50.1878 39.888H48.1558V34.288C48.2517 34.2667 48.3851 34.24 48.5558 34.208C48.7371 34.176 48.9184 34.16 49.0998 34.16C49.4838 34.16 49.7611 34.2293 49.9318 34.368C50.1024 34.496 50.1878 34.7413 50.1878 35.104V39.888Z" fill="#4B65F7"/>
</svg>
