<svg width="20" height="20" viewBox="0 0 20 20" fill="none" xmlns="http://www.w3.org/2000/svg">
<path d="M3.75 3.125L16.25 16.875" stroke="#868890" stroke-width="2" stroke-linecap="round" stroke-linejoin="round"/>
<path d="M12.1016 12.3125C11.5281 12.8379 10.7777 13.128 10 13.125C9.36927 13.1249 8.75332 12.934 8.23313 12.5773C7.71294 12.2206 7.31285 11.7149 7.08547 11.1266C6.85809 10.5383 6.81405 9.8949 6.95915 9.28109C7.10425 8.66728 7.4317 8.11173 7.89844 7.6875" stroke="#868890" stroke-width="2" stroke-linecap="round" stroke-linejoin="round"/>
<path d="M5.78125 5.35938C2.59375 6.96875 1.25 10 1.25 10C1.25 10 3.75 15.625 10 15.625C11.4645 15.6369 12.9108 15.2995 14.2188 14.6406" stroke="#868890" stroke-width="2" stroke-linecap="round" stroke-linejoin="round"/>
<path d="M16.2969 13.211C18 11.6875 18.75 10 18.75 10C18.75 10 16.25 4.37502 10 4.37502C9.45817 4.37395 8.91721 4.41838 8.38281 4.50783" stroke="#868890" stroke-width="2" stroke-linecap="round" stroke-linejoin="round"/>
<path d="M10.5859 6.92969C11.2505 7.05561 11.8561 7.39427 12.3113 7.89457C12.7665 8.39487 13.0466 9.02965 13.1094 9.70312" stroke="#868890" stroke-width="2" stroke-linecap="round" stroke-linejoin="round"/>
</svg>
