<svg width="24" height="24" viewBox="0 0 24 24" fill="none" xmlns="http://www.w3.org/2000/svg">
<path d="M8.63104 16.4909C8.96144 17.4329 9.49696 18.2897 10.1989 18.9995C10.9009 19.7093 11.7517 20.2544 12.69 20.5952C13.6282 20.9361 14.6305 21.0643 15.6244 20.9706C16.6182 20.8768 17.5789 20.5635 18.4369 20.0532V20.0532L20.7712 20.7188C20.8673 20.7459 20.969 20.7468 21.0656 20.7215C21.1623 20.6963 21.2505 20.6457 21.3211 20.5751C21.3918 20.5044 21.4423 20.4162 21.4676 20.3196C21.4929 20.2229 21.4919 20.1213 21.4649 20.0251L20.7993 17.6908C21.3935 16.6934 21.72 15.5594 21.7471 14.3986C21.7743 13.2379 21.5011 12.0899 20.9542 11.0657C20.4072 10.0416 19.605 9.17614 18.6253 8.55317C17.6455 7.9302 16.5214 7.57088 15.362 7.51001" stroke="#202026" stroke-width="1.49994" stroke-linecap="round" stroke-linejoin="round"/>
<path d="M3.19665 13.1919C2.35608 11.7758 2.06146 10.1015 2.36811 8.48343C2.67476 6.86539 3.56158 5.41498 4.86203 4.40459C6.16248 3.39419 7.78707 2.89334 9.4307 2.99609C11.0743 3.09884 12.6239 3.79812 13.7884 4.96261C14.9529 6.1271 15.6522 7.67667 15.7549 9.32029C15.8577 10.9639 15.3568 12.5885 14.3464 13.889C13.336 15.1894 11.8856 16.0762 10.2676 16.3829C8.64953 16.6895 6.97521 16.3949 5.55905 15.5543L3.22477 16.2199C3.1286 16.247 3.02695 16.2479 2.93029 16.2227C2.83363 16.1974 2.74545 16.1468 2.6748 16.0762C2.60416 16.0055 2.5536 15.9174 2.52834 15.8207C2.50308 15.724 2.50401 15.6224 2.53105 15.5262L3.19665 13.1919Z" stroke="#202026" stroke-width="1.49994" stroke-linecap="round" stroke-linejoin="round"/>
</svg>
