<svg width="216" height="36" viewBox="0 0 216 36" fill="none" xmlns="http://www.w3.org/2000/svg">
<path d="M202.901 17.2984L200.126 27.2174H196.529L191.75 12.0396H195.706L198.456 21.7502L201.128 12.0396H204.674L207.321 21.7502L210.096 12.0396H214.053L209.273 27.2174H205.676L202.901 17.2984Z" fill="#292A32"/>
<path d="M178.158 22.2202C178.518 23.0533 179.057 23.7042 179.802 24.1468C180.522 24.5893 181.447 24.8236 182.552 24.8236C183.579 24.8236 184.504 24.6414 185.378 24.303C186.2 23.9645 186.971 23.3657 187.665 22.5326L190.26 24.5373C189.361 25.6307 188.282 26.4638 187.048 27.0886C185.789 27.6874 184.427 27.9998 182.963 27.9998C181.678 27.9998 180.496 27.7915 179.417 27.427C178.312 27.0105 177.361 26.4638 176.565 25.7609C175.743 25.0319 175.1 24.1468 174.638 23.1054C174.149 22.0901 173.918 20.9446 173.918 19.6429C173.918 18.3932 174.124 17.2477 174.586 16.2064C175.023 15.1911 175.64 14.3059 176.411 13.5509C177.181 12.822 178.081 12.2492 179.16 11.8327C180.188 11.4422 181.344 11.2339 182.577 11.2339C183.759 11.2339 184.864 11.4422 185.892 11.8327C186.868 12.2492 187.742 12.7959 188.487 13.4728C189.207 14.2018 189.798 15.0349 190.26 15.9981C190.671 16.9874 190.928 18.0808 190.98 19.2263L178.158 22.2202ZM182.757 14.41C181.216 14.41 180.034 14.8526 179.16 15.6857C178.261 16.5709 177.772 17.7424 177.695 19.2003L186.945 16.9614C186.483 16.0762 185.918 15.4254 185.198 15.0088C184.479 14.6183 183.657 14.41 182.757 14.41Z" fill="#292A32"/>
<path d="M171.343 12.0399V27.2177H167.284V12.0399H171.343ZM171.343 6V9.95717H167.284V6H171.343Z" fill="#292A32"/>
<path d="M158.5 27.2174H154.388L148.042 12.0396H152.179L156.444 22.4271L160.709 12.0396H164.846L158.5 27.2174Z" fill="#292A32"/>
<path d="M135.225 22.2202C135.585 23.0533 136.125 23.7042 136.87 24.1468C137.589 24.5893 138.514 24.8236 139.619 24.8236C140.647 24.8236 141.572 24.6414 142.446 24.303C143.268 23.9645 144.039 23.3657 144.733 22.5326L147.328 24.5373C146.428 25.6307 145.349 26.4638 144.116 27.0886C142.857 27.6874 141.495 27.9998 140.03 27.9998C138.746 27.9998 137.564 27.7915 136.485 27.427C135.38 27.0105 134.429 26.4638 133.632 25.7609C132.81 25.0319 132.168 24.1468 131.705 23.1054C131.217 22.0901 130.986 20.9446 130.986 19.6429C130.986 18.3932 131.191 17.2477 131.654 16.2064C132.091 15.1911 132.707 14.3059 133.478 13.5509C134.249 12.822 135.148 12.2492 136.228 11.8327C137.255 11.4422 138.412 11.2339 139.645 11.2339C140.827 11.2339 141.932 11.4422 142.96 11.8327C143.936 12.2492 144.81 12.7959 145.555 13.4728C146.274 14.2018 146.865 15.0349 147.328 15.9981C147.739 16.9874 147.996 18.0808 148.047 19.2263L135.225 22.2202ZM139.825 14.41C138.283 14.41 137.101 14.8526 136.228 15.6857C135.328 16.5709 134.84 17.7424 134.763 19.2003L144.013 16.9614C143.551 16.0762 142.985 15.4254 142.266 15.0088C141.546 14.6183 140.724 14.41 139.825 14.41Z" fill="#292A32"/>
<path d="M112.625 6.73047H123.468C124.342 6.73047 125.138 6.86064 125.909 7.09494C126.654 7.35528 127.322 7.71976 127.887 8.18837C128.453 8.70905 128.89 9.33387 129.224 10.0628C129.532 10.8438 129.686 11.729 129.686 12.7443C129.686 14.2022 129.378 15.3477 128.787 16.1548C128.17 16.9879 127.322 17.6127 126.269 18.0292L130.765 27.2192H126.577L122.569 19.0446L116.685 20.4504V27.2192H112.625V6.73047ZM125.652 12.7443C125.652 11.8331 125.369 11.1302 124.855 10.6356C124.29 10.167 123.596 9.90662 122.748 9.90662H116.685V17.0139L122.312 15.8424C123.391 15.6601 124.213 15.2957 124.804 14.775C125.369 14.2803 125.652 13.6034 125.652 12.7443Z" fill="#292A32"/>
<path d="M97.7018 13.6293C97.9588 13.3169 98.3185 13.0044 98.7296 12.7441C99.115 12.4838 99.5518 12.2755 100.014 12.0672C100.477 11.911 100.939 11.7548 101.453 11.6507C101.941 11.5726 102.43 11.5205 102.892 11.5205C103.817 11.5205 104.716 11.6767 105.539 11.9631C106.361 12.2755 107.08 12.666 107.697 13.1867C108.314 13.7334 108.802 14.3842 109.162 15.1132C109.496 15.8942 109.676 16.7273 109.676 17.6385V27.219H105.616V19.0443C105.616 17.5344 105.282 16.4149 104.639 15.712C103.971 15.0351 103.098 14.6967 101.967 14.6967C100.991 14.6967 100.143 15.0351 99.4234 15.6859C98.6782 16.3628 98.19 17.3001 97.9845 18.4716V27.219H93.9247V12.0412H97.3678L97.7018 13.6293Z" fill="#292A32"/>
<path d="M90.333 12.0399V27.2177H86.2732V12.0399H90.333ZM90.333 6V9.95717H86.2732V6H90.333Z" fill="#292A32"/>
<path d="M79.2705 12.0412H82.8164V27.219H79.3733L78.8851 25.2144C78.5767 25.6049 78.1913 25.9694 77.7545 26.3078C77.292 26.6202 76.8295 26.8806 76.3156 27.1149C75.776 27.3231 75.2364 27.4794 74.6711 27.6095C74.1058 27.7137 73.5406 27.7397 73.001 27.7397C71.9475 27.7137 70.9711 27.5054 70.0461 27.0888C69.0954 26.6723 68.2731 26.0995 67.5794 25.3966C66.8599 24.6677 66.2946 23.8346 65.8835 22.8453C65.4724 21.882 65.2668 20.8146 65.2668 19.6692C65.2668 18.4976 65.4724 17.4042 65.9092 16.3889C66.3203 15.3996 66.9113 14.5405 67.6308 13.8115C68.3502 13.1086 69.1724 12.5358 70.0975 12.1193C71.0225 11.7288 71.9732 11.5205 72.9753 11.5205C74.2086 11.5205 75.3135 11.7288 76.3413 12.1453C77.3434 12.5619 78.1656 13.1607 78.808 13.9156L79.2705 12.0412ZM73.7975 24.5635C74.4142 24.5635 74.9795 24.4334 75.5447 24.2251C76.0843 24.0168 76.5725 23.6784 76.9837 23.2358C77.3691 22.8193 77.6774 22.3246 77.9344 21.6998C78.1399 21.101 78.2684 20.4241 78.2684 19.6692C78.2684 18.8881 78.1399 18.2112 77.9344 17.5864C77.6774 16.9876 77.3691 16.467 76.9837 16.0244C76.5725 15.6078 76.0843 15.2954 75.5447 15.0611C74.9795 14.8529 74.4142 14.7227 73.7975 14.7227C73.1808 14.7227 72.5898 14.8529 72.0503 15.0611C71.485 15.2954 71.0225 15.6078 70.637 16.0244C70.2259 16.467 69.8919 16.9876 69.6863 17.5864C69.4294 18.2112 69.3266 18.8881 69.3266 19.6692C69.3266 20.4241 69.4294 21.101 69.6863 21.6998C69.8919 22.3246 70.2259 22.8193 70.637 23.2358C71.0225 23.6784 71.485 24.0168 72.0503 24.2251C72.5898 24.4334 73.1808 24.5635 73.7975 24.5635Z" fill="#292A32"/>
<path d="M46.0525 6.73047H55.1998C56.5103 6.73047 57.7179 6.99081 58.8228 7.51149C59.902 8.03217 60.8527 8.76112 61.6492 9.64628C62.42 10.5835 63.011 11.6509 63.4735 12.9005C63.8846 14.1502 64.1159 15.5039 64.1159 16.9358C64.1159 18.4458 63.8846 19.7995 63.4478 21.0492C62.9853 22.3248 62.343 23.4183 61.5207 24.3034C60.6471 25.2146 59.6193 25.9436 58.4117 26.4642C57.1783 26.9589 55.7651 27.2192 54.2234 27.2192H46.0525V6.73047ZM50.1123 24.0431H53.9151C54.9172 24.0431 55.8165 23.8608 56.5873 23.4964C57.3325 23.1319 57.9749 22.6372 58.4887 21.9864C59.0026 21.3616 59.3881 20.6066 59.6707 19.7214C59.9277 18.8623 60.0561 17.8991 60.0561 16.8577C60.0561 15.8424 59.902 14.9051 59.6193 14.046C59.311 13.2129 58.8999 12.458 58.3346 11.8331C57.7693 11.2344 57.0755 10.7657 56.279 10.4013C55.4568 10.0889 54.5318 9.90662 53.504 9.90662H50.1123V24.0431Z" fill="#292A32"/>
<rect opacity="0.5" x="2.52771" width="35.4722" height="27.3108" rx="13.6554" fill="#AE2AFF"/>
<path opacity="0.5" d="M34.2495 22.8269C33.9536 23.3255 33.6717 23.835 33.3592 24.3228C32.1048 26.2822 30.4311 27.7225 28.3722 28.7476C26.2122 29.8223 23.9465 30.2254 21.5751 30.1963C19.9531 30.1757 19.9683 30.2108 18.7503 31.3073C17.086 32.8069 15.3959 34.275 13.7163 35.7564C13.4027 36.0323 13.048 36.0686 12.6909 35.8919C12.3374 35.7164 12.1377 35.4199 12.14 34.9915C12.1459 33.5282 12.1377 32.0638 12.1459 30.6005C12.1471 30.321 12.1107 30.2132 11.7806 30.1624C8.90419 29.7146 6.25913 28.6919 4.08623 26.6272C2.41486 25.0405 1.28378 23.098 0.603725 20.8638C-0.00351081 18.8668 -0.143281 16.8505 0.142132 14.7785C0.567315 11.6874 1.81115 9.03081 3.98522 6.84624C4.82971 5.99783 5.80693 5.33217 6.84287 4.75971C6.94741 4.70161 7.05194 4.65441 7.12476 4.55396C7.24574 4.56243 7.35262 4.52128 7.46185 4.47166C9.3282 3.61719 11.2791 3.1827 13.3275 3.19238C16.056 3.2057 18.7856 3.2057 21.514 3.19238C22.8025 3.18512 24.0757 3.25653 25.3418 3.54821C29.2484 4.44987 32.2152 6.63081 34.0804 10.3004C34.8991 11.9113 35.3313 13.6432 35.5004 15.4647C35.6414 16.9824 35.484 18.4577 35.2021 19.9307C35.0095 20.9376 34.5949 21.872 34.2507 22.8281L34.2495 22.8269Z" fill="#0066FF"/>
</svg>
