<svg width="126" height="22" viewBox="0 0 126 22" fill="none" xmlns="http://www.w3.org/2000/svg">
<path d="M115.541 10.3504L113.961 15.9987H111.912L109.191 7.35577H111.444L113.01 12.8855L114.532 7.35577H116.551L118.058 12.8855L119.638 7.35577H121.891L119.17 15.9987H117.121L115.541 10.3504Z" fill="#292A32"/>
<path d="M101.451 13.1533C101.656 13.6277 101.963 13.9984 102.388 14.2504C102.797 14.5024 103.324 14.6358 103.953 14.6358C104.539 14.6358 105.065 14.5321 105.563 14.3393C106.031 14.1466 106.47 13.8056 106.865 13.3312L108.343 14.4728C107.831 15.0954 107.216 15.5698 106.514 15.9256C105.797 16.2666 105.021 16.4445 104.187 16.4445C103.456 16.4445 102.783 16.3259 102.168 16.1183C101.539 15.8811 100.998 15.5698 100.544 15.1695C100.076 14.7544 99.7102 14.2504 99.4468 13.6574C99.1688 13.0792 99.0371 12.4269 99.0371 11.6857C99.0371 10.9741 99.1542 10.3218 99.4175 9.72878C99.6663 9.1506 100.017 8.64656 100.456 8.21663C100.895 7.80154 101.407 7.47539 102.022 7.23819C102.607 7.01582 103.266 6.89722 103.968 6.89722C104.641 6.89722 105.27 7.01582 105.855 7.23819C106.411 7.47539 106.909 7.78671 107.333 8.17216C107.743 8.58726 108.08 9.06165 108.343 9.61018C108.577 10.1735 108.723 10.7962 108.753 11.4485L101.451 13.1533ZM104.07 8.70586C103.193 8.70586 102.519 8.95788 102.022 9.43228C101.51 9.93633 101.232 10.6034 101.188 11.4336L106.455 10.1587C106.192 9.65465 105.87 9.28403 105.46 9.04683C105.051 8.82446 104.583 8.70586 104.07 8.70586Z" fill="#292A32"/>
<path d="M97.5706 7.35607V15.999H95.2588V7.35607H97.5706ZM97.5706 3.91669V6.17007H95.2588V3.91669H97.5706Z" fill="#292A32"/>
<path d="M90.2569 15.9987H87.9158L84.3018 7.35577H86.6575L89.0863 13.2709L91.5152 7.35577H93.8709L90.2569 15.9987Z" fill="#292A32"/>
<path d="M77.0036 13.1533C77.2084 13.6277 77.5157 13.9984 77.94 14.2504C78.3497 14.5024 78.8765 14.6358 79.5056 14.6358C80.0909 14.6358 80.6176 14.5321 81.1151 14.3393C81.5833 14.1466 82.0223 13.8056 82.4173 13.3312L83.8951 14.4728C83.383 15.0954 82.7685 15.5698 82.0662 15.9256C81.3492 16.2666 80.5737 16.4445 79.7397 16.4445C79.0081 16.4445 78.3351 16.3259 77.7205 16.1183C77.0914 15.8811 76.55 15.5698 76.0964 15.1695C75.6282 14.7544 75.2624 14.2504 74.999 13.6574C74.721 13.0792 74.5894 12.4269 74.5894 11.6857C74.5894 10.9741 74.7064 10.3218 74.9698 9.72878C75.2185 9.1506 75.5697 8.64656 76.0086 8.21663C76.4476 7.80154 76.9597 7.47539 77.5742 7.23819C78.1595 7.01582 78.8179 6.89722 79.5203 6.89722C80.1933 6.89722 80.8225 7.01582 81.4077 7.23819C81.9637 7.47539 82.4612 7.78671 82.8855 8.17216C83.2952 8.58726 83.6318 9.06165 83.8951 9.61018C84.1292 10.1735 84.2756 10.7962 84.3048 11.4485L77.0036 13.1533ZM79.6227 8.70586C78.7448 8.70586 78.0717 8.95788 77.5742 9.43228C77.0621 9.93633 76.7841 10.6034 76.7402 11.4336L82.0076 10.1587C81.7443 9.65465 81.4224 9.28403 81.0127 9.04683C80.603 8.82446 80.1348 8.70586 79.6227 8.70586Z" fill="#292A32"/>
<path d="M64.1338 4.33252H70.3084C70.8059 4.33252 71.2594 4.40664 71.6984 4.54007C72.1227 4.68832 72.5031 4.89587 72.825 5.16271C73.1469 5.45921 73.3957 5.81501 73.5859 6.23011C73.7615 6.67486 73.8493 7.1789 73.8493 7.75708C73.8493 8.58727 73.6737 9.23957 73.3371 9.69914C72.986 10.1735 72.5031 10.5293 71.9032 10.7665L74.4638 15.9997H72.0788L69.7963 11.3447L66.4456 12.1453V15.9997H64.1338V4.33252ZM71.5521 7.75708C71.5521 7.2382 71.3911 6.83793 71.0985 6.55626C70.7766 6.28941 70.3815 6.14116 69.8987 6.14116H66.4456V10.1884L69.65 9.52124C70.2645 9.41747 70.7327 9.20992 71.0692 8.91342C71.3911 8.63175 71.5521 8.2463 71.5521 7.75708Z" fill="#292A32"/>
<path d="M55.6357 8.261C55.782 8.0831 55.9869 7.9052 56.221 7.75695C56.4405 7.6087 56.6892 7.4901 56.9526 7.3715C57.216 7.28255 57.4793 7.19361 57.772 7.13431C58.05 7.08983 58.328 7.06018 58.5913 7.06018C59.1181 7.06018 59.6302 7.14913 60.0984 7.3122C60.5666 7.4901 60.9763 7.71248 61.3275 8.00898C61.6786 8.3203 61.9566 8.69092 62.1615 9.10602C62.3517 9.55077 62.4541 10.0252 62.4541 10.544V15.9996H60.1423V11.3446C60.1423 10.4847 59.9521 9.84727 59.5863 9.44699C59.2059 9.06155 58.7084 8.86882 58.0646 8.86882C57.5086 8.86882 57.0257 9.06155 56.6161 9.43217C56.1917 9.81762 55.9137 10.3513 55.7967 11.0184V15.9996H53.4849V7.35668H55.4455L55.6357 8.261Z" fill="#292A32"/>
<path d="M51.4397 7.35607V15.999H49.1279V7.35607H51.4397ZM51.4397 3.91669V6.17007H49.1279V3.91669H51.4397Z" fill="#292A32"/>
<path d="M45.1403 7.35668H47.1595V15.9996H45.1988L44.9208 14.8581C44.7453 15.0805 44.5258 15.288 44.277 15.4807C44.0137 15.6586 43.7503 15.8069 43.4577 15.9403C43.1504 16.0589 42.8431 16.1479 42.5212 16.222C42.1993 16.2813 41.8774 16.2961 41.5702 16.2961C40.9703 16.2813 40.4143 16.1627 39.8875 15.9255C39.3461 15.6883 38.8779 15.3621 38.4829 14.9619C38.0732 14.5468 37.7513 14.0724 37.5172 13.509C37.2831 12.9605 37.166 12.3527 37.166 11.7004C37.166 11.0333 37.2831 10.4106 37.5318 9.83244C37.7659 9.26909 38.1024 8.77987 38.5121 8.36477C38.9218 7.9645 39.39 7.63835 39.9168 7.40115C40.4435 7.17878 40.9849 7.06018 41.5555 7.06018C42.2579 7.06018 42.887 7.17878 43.4723 7.41598C44.0429 7.65318 44.5111 7.99415 44.8769 8.42407L45.1403 7.35668ZM42.0238 14.4875C42.3749 14.4875 42.6968 14.4133 43.0187 14.2947C43.326 14.1761 43.604 13.9834 43.8381 13.7314C44.0576 13.4942 44.2331 13.2125 44.3795 12.8567C44.4965 12.5158 44.5697 12.1303 44.5697 11.7004C44.5697 11.2556 44.4965 10.8702 44.3795 10.5144C44.2331 10.1734 44.0576 9.87691 43.8381 9.62489C43.604 9.38769 43.326 9.20979 43.0187 9.07637C42.6968 8.95777 42.3749 8.88365 42.0238 8.88365C41.6726 8.88365 41.3361 8.95777 41.0288 9.07637C40.7069 9.20979 40.4435 9.38769 40.224 9.62489C39.9899 9.87691 39.7997 10.1734 39.6827 10.5144C39.5364 10.8702 39.4778 11.2556 39.4778 11.7004C39.4778 12.1303 39.5364 12.5158 39.6827 12.8567C39.7997 13.2125 39.9899 13.4942 40.224 13.7314C40.4435 13.9834 40.7069 14.1761 41.0288 14.2947C41.3361 14.4133 41.6726 14.4875 42.0238 14.4875Z" fill="#292A32"/>
<path d="M26.2246 4.33252H31.4335C32.1797 4.33252 32.8674 4.48077 33.4966 4.77727C34.1111 5.07377 34.6525 5.48886 35.1061 5.99291C35.545 6.52661 35.8816 7.13443 36.1449 7.84603C36.379 8.55762 36.5107 9.32852 36.5107 10.1439C36.5107 11.0037 36.379 11.7746 36.1303 12.4862C35.8669 13.2126 35.5011 13.8353 35.0329 14.3393C34.5354 14.8582 33.9502 15.2733 33.2625 15.5698C32.5601 15.8515 31.7554 15.9997 30.8775 15.9997H26.2246V4.33252ZM28.5364 14.1911H30.7019C31.2726 14.1911 31.7847 14.0873 32.2236 13.8798C32.6479 13.6722 33.0137 13.3905 33.3064 13.0199C33.599 12.6641 33.8185 12.2342 33.9794 11.7302C34.1257 11.2409 34.1989 10.6924 34.1989 10.0994C34.1989 9.52124 34.1111 8.98754 33.9502 8.49832C33.7746 8.02392 33.5405 7.594 33.2186 7.2382C32.8967 6.89723 32.5016 6.63038 32.048 6.42283C31.5798 6.24493 31.0531 6.14116 30.4678 6.14116H28.5364V14.1911Z" fill="#292A32"/>
<rect opacity="0.5" x="1.47461" y="0.5" width="20.6921" height="15.9313" rx="7.96565" fill="#AE2AFF"/>
<path opacity="0.5" d="M19.9789 13.8157C19.8062 14.1065 19.6418 14.4038 19.4596 14.6883C18.7278 15.8313 17.7515 16.6714 16.5504 17.2694C15.2904 17.8964 13.9688 18.1315 12.5855 18.1145C11.6393 18.1025 11.6482 18.123 10.9377 18.7626C9.96684 19.6374 8.98092 20.4937 8.00116 21.3579C7.81822 21.5188 7.61131 21.54 7.40302 21.4369C7.19679 21.3346 7.08032 21.1616 7.08169 20.9117C7.08512 20.0581 7.08032 19.2039 7.08512 18.3503C7.0858 18.1872 7.06456 18.1244 6.87203 18.0947C5.19411 17.8335 3.65116 17.237 2.38363 16.0325C1.40867 15.1069 0.748873 13.9738 0.352173 12.6705C-0.00204797 11.5056 -0.0835805 10.3294 0.0829103 9.12077C0.330934 7.31764 1.0565 5.76797 2.32471 4.49364C2.81733 3.99873 3.38738 3.61043 3.99168 3.27649C4.05265 3.24261 4.11363 3.21507 4.15611 3.15647C4.22668 3.16142 4.28903 3.13741 4.35275 3.10847C5.44145 2.61003 6.57948 2.35658 7.77437 2.36222C9.36597 2.36999 10.9583 2.36999 12.5498 2.36222C13.3015 2.35799 14.0442 2.39964 14.7827 2.56979C17.0615 3.09576 18.7922 4.36797 19.8802 6.50857C20.3578 7.44825 20.6099 8.45854 20.7086 9.52107C20.7908 10.4064 20.699 11.267 20.5346 12.1262C20.4222 12.7136 20.1803 13.2586 19.9796 13.8164L19.9789 13.8157Z" fill="#0066FF"/>
</svg>
