<svg width="24" height="24" viewBox="0 0 24 24" fill="none" xmlns="http://www.w3.org/2000/svg">
<g clip-path="url(#clip0_3444_4008)">
<path d="M9.79367 9.45065V8.51568C9.48796 8.46384 9.17888 8.43613 8.86896 8.43166C5.87081 8.42451 3.21712 10.4866 2.31683 13.5222C1.41654 16.5577 2.47937 19.8614 4.94021 21.6786C3.09668 19.5843 2.58464 16.5362 3.63315 13.8958C4.68166 11.2553 7.09449 9.51412 9.79367 9.45155V9.45065Z" fill="#EDEDEF"/>
<path d="M9.95901 20.0456C11.6349 20.0429 13.0127 18.6413 13.086 16.8644V1.0038H15.8163C15.7608 0.672179 15.7338 0.336089 15.7372 0H12.003V15.8454C11.9407 17.6313 10.5595 19.0471 8.87597 19.0498C8.37235 19.0454 7.87799 18.914 7.43164 18.6664C8.0178 19.5289 8.95766 20.0411 9.95985 20.0465L9.95901 20.0456Z" fill="#EDEDEF"/>
<path d="M20.9176 6.38578V5.50443C19.9129 5.50443 18.93 5.1898 18.0938 4.59985C18.8273 5.50533 19.8185 6.13192 20.9176 6.38578Z" fill="#EDEDEF"/>
<path d="M18.095 4.60044C17.2705 3.60379 16.8166 2.32379 16.8166 0.997314H15.8203C16.0805 2.47843 16.9034 3.78167 18.095 4.60044Z" fill="#EDEDEF"/>
<path d="M8.86856 12.3956C7.43012 12.4036 6.18117 13.4495 5.84009 14.9324C5.49817 16.4153 6.1517 17.9545 7.42422 18.666C6.73448 17.655 6.63679 16.3196 7.17241 15.2086C7.7072 14.0975 8.78434 13.3985 9.96002 13.3994C10.2733 13.4039 10.5849 13.4548 10.8847 13.5531V9.52096C10.579 9.4727 10.2699 9.44677 9.96002 9.44409H9.79411V12.51C9.49261 12.4242 9.181 12.3858 8.8694 12.3947L8.86856 12.3956Z" fill="#EDEDEF"/>
<path d="M20.9116 6.38786V9.45378C19.0513 9.4502 17.2397 8.8254 15.7331 7.66786V15.7242C15.7255 19.7447 12.6524 22.9993 8.8643 22.9993C7.45786 23.0019 6.08512 22.5416 4.93555 21.6808C6.85402 23.8708 9.83954 24.5912 12.4621 23.498C15.0846 22.4048 16.8085 19.7188 16.8094 16.7289V8.6949C18.3211 9.84439 20.1351 10.4612 21.9955 10.4576V6.50942C21.6317 6.50853 21.2687 6.46741 20.9125 6.38696L20.9116 6.38786Z" fill="#EDEDEF"/>
<path d="M15.7346 15.7227V7.66637C17.2463 8.81676 19.0603 9.43352 20.9207 9.42905V6.36313C19.8217 6.11642 18.8279 5.49787 18.0893 4.60044C16.8968 3.78167 16.074 2.47933 15.8146 0.997314H13.0843V16.865C13.0295 18.2809 12.136 19.5046 10.8584 19.914C9.5808 20.3234 8.19795 19.8291 7.41473 18.6822C6.1422 17.9707 5.48867 16.4315 5.83059 14.9486C6.17252 13.4657 7.42062 12.4199 8.85906 12.4118C9.17235 12.4145 9.48395 12.4664 9.78377 12.5656V9.49966C7.06943 9.54882 4.63807 11.2945 3.58703 13.952C2.536 16.6085 3.06236 19.6735 4.93031 21.7651C6.09082 22.5973 7.4661 23.0282 8.86664 22.9996C12.6547 22.9996 15.727 19.745 15.7354 15.7245L15.7346 15.7227Z" fill="#DADADA"/>
</g>
<defs>
<clipPath id="clip0_3444_4008">
<rect width="20" height="24" fill="white" transform="translate(2)"/>
</clipPath>
</defs>
</svg>
