<svg width="140" height="140" viewBox="0 0 140 140" fill="none" xmlns="http://www.w3.org/2000/svg">
<path d="M47.5137 104.135H46.4336V91.9531H47.5137V104.135ZM41.0469 92.8965C41.6484 92.901 42.1839 93.0788 42.6533 93.4297C43.1227 93.776 43.4896 94.2682 43.7539 94.9062C44.0182 95.5443 44.1504 96.2871 44.1504 97.1348C44.1504 97.9824 44.0182 98.7253 43.7539 99.3633C43.4896 100.001 43.1227 100.493 42.6533 100.84C42.1839 101.186 41.6484 101.359 41.0469 101.359C40.4453 101.359 39.9076 101.186 39.4336 100.84C38.9642 100.493 38.5973 100.001 38.333 99.3633C38.0732 98.7253 37.9434 97.9824 37.9434 97.1348C37.9434 96.2871 38.0732 95.5443 38.333 94.9062C38.5973 94.2682 38.9642 93.776 39.4336 93.4297C39.903 93.0788 40.4408 92.901 41.0469 92.8965ZM41.0469 93.8535C40.6413 93.8581 40.2812 93.9971 39.9668 94.2705C39.6569 94.5394 39.4154 94.9222 39.2422 95.4189C39.069 95.9111 38.9824 96.4831 38.9824 97.1348C38.9824 97.7865 39.069 98.3607 39.2422 98.8574C39.4154 99.3496 39.6592 99.7301 39.9736 99.999C40.2881 100.268 40.6458 100.402 41.0469 100.402C41.4479 100.402 41.8057 100.268 42.1201 99.999C42.4346 99.7301 42.6784 99.3496 42.8516 98.8574C43.0247 98.3607 43.1113 97.7865 43.1113 97.1348C43.1113 96.4831 43.0247 95.9111 42.8516 95.4189C42.6784 94.9222 42.4346 94.5394 42.1201 94.2705C41.8102 93.9971 41.4525 93.8581 41.0469 93.8535ZM55.9219 101.059H50.3027V93.1562H55.9219V101.059ZM51.3555 100.184H54.8691V94.0176H51.3555V100.184ZM59.6133 104.135H58.5332V91.9531H59.6133V104.135ZM66.0391 95.6855C66.0391 96.3555 66.1872 97.0231 66.4834 97.6885C66.7796 98.3493 67.1784 98.9395 67.6797 99.459C68.1855 99.974 68.737 100.361 69.334 100.621L68.7324 101.469C68.0169 101.141 67.3721 100.646 66.7979 99.9854C66.2236 99.32 65.7952 98.5703 65.5127 97.7363C65.2301 98.6296 64.8018 99.4385 64.2275 100.163C63.6579 100.883 63.0267 101.419 62.334 101.77L61.6914 100.922C62.2656 100.644 62.8011 100.225 63.2979 99.6641C63.7992 99.1035 64.2002 98.4723 64.501 97.7705C64.8018 97.0641 64.9544 96.3691 64.959 95.6855V94.0996H62.0879V93.2109H68.9375V94.0996H66.0391V95.6855ZM71.7129 104.107H70.6328V91.9531H71.7129V104.107ZM88.3926 98.6387H77.3047V97.7363H88.3926V98.6387ZM87.0938 96.5742H78.7129V92.4453H87.0117V93.3477H79.7656V95.6992H87.0938V96.5742ZM82.8418 99.7051C83.7077 99.7051 84.4528 99.7917 85.0771 99.9648C85.7061 100.133 86.1868 100.382 86.5195 100.71C86.8522 101.038 87.0208 101.432 87.0254 101.893C87.0208 102.357 86.8522 102.754 86.5195 103.082C86.1868 103.41 85.7083 103.659 85.084 103.827C84.4596 103.996 83.7122 104.08 82.8418 104.08C81.9668 104.08 81.2148 103.996 80.5859 103.827C79.957 103.659 79.4762 103.41 79.1436 103.082C78.8109 102.754 78.6445 102.357 78.6445 101.893C78.6445 101.432 78.8109 101.038 79.1436 100.71C79.4762 100.382 79.957 100.133 80.5859 99.9648C81.2148 99.7917 81.9668 99.7051 82.8418 99.7051ZM82.8418 100.539C82.1901 100.544 81.6318 100.601 81.167 100.71C80.7021 100.815 80.3467 100.97 80.1006 101.175C79.8545 101.375 79.7337 101.615 79.7383 101.893C79.7337 102.321 80.0026 102.651 80.5449 102.884C81.0918 103.116 81.8574 103.232 82.8418 103.232C83.8125 103.232 84.5713 103.116 85.1182 102.884C85.6696 102.651 85.9453 102.321 85.9453 101.893C85.9453 101.615 85.82 101.375 85.5693 101.175C85.3232 100.97 84.9678 100.815 84.5029 100.71C84.0381 100.601 83.4844 100.544 82.8418 100.539ZM100.52 99.541H89.3906V98.6523H94.4219V97.3672H90.8398V94.4004H98.0039V93.1426H90.7988V92.2676H99.084V95.207H91.9062V96.5059H99.3438V97.3672H95.4746V98.6523H100.52V99.541ZM99.1523 103.998H98.0723V101.346H90.6348V100.471H99.1523V103.998Z" fill="#C7C8CC"/>
<path fill-rule="evenodd" clip-rule="evenodd" d="M48.5983 75.6516C49.3016 76.3549 50.2554 76.75 51.25 76.75H88.75C89.7446 76.75 90.6984 76.3549 91.4016 75.6516C92.1049 74.9484 92.5 73.9946 92.5 73V46.75C92.5 45.7554 92.1049 44.8016 91.4016 44.0984C90.6984 43.3951 89.7446 43 88.75 43H81.25L77.5 37.375H62.5L58.75 43H51.25C50.2554 43 49.3016 43.3951 48.5983 44.0984C47.8951 44.8016 47.5 45.7554 47.5 46.75V73C47.5 73.9946 47.8951 74.9484 48.5983 75.6516ZM63.4375 58.9375C63.4375 55.3131 66.3756 52.375 70 52.375C73.6244 52.375 76.5625 55.3131 76.5625 58.9375C76.5625 62.5619 73.6244 65.5 70 65.5C66.3756 65.5 63.4375 62.5619 63.4375 58.9375ZM70 48.625C64.3046 48.625 59.6875 53.2421 59.6875 58.9375C59.6875 64.6329 64.3046 69.25 70 69.25C75.6954 69.25 80.3125 64.6329 80.3125 58.9375C80.3125 53.2421 75.6954 48.625 70 48.625Z" fill="#EDEDEF"/>
</svg>
