<svg width="24" height="24" viewBox="0 0 24 24" fill="none" xmlns="http://www.w3.org/2000/svg">
<path fill-rule="evenodd" clip-rule="evenodd" d="M22.4328 4.79867C22.703 5.49533 22.8925 6.29955 22.9438 7.468C22.9952 8.64133 23 9.01533 23 12.0024C23 14.9896 22.9865 15.3636 22.9352 16.5368C22.8838 17.7053 22.6945 18.5047 22.4243 19.205C21.852 20.6838 20.6828 21.8526 19.2038 22.4243C18.5083 22.6945 17.7042 22.8838 16.5345 22.9352C15.3611 22.9878 14.9871 23 12 23C9.01288 23 8.63888 22.9878 7.46555 22.9352C6.29588 22.8838 5.49655 22.6945 4.79622 22.4243C4.06533 22.1493 3.398 21.7155 2.848 21.1568C2.28802 20.6057 1.85397 19.9398 1.57567 19.205C1.30556 18.5083 1.11611 17.7053 1.06478 16.5368C1.01222 15.3636 1 14.9896 1 12.0024C1 9.01533 1.01344 8.64133 1.06844 7.46312C1.121 6.29467 1.30922 5.49533 1.58056 4.795C1.85556 4.06412 2.28944 3.398 2.848 2.848C3.39791 2.28644 4.06415 1.85215 4.79988 1.57567C5.49655 1.30556 6.29955 1.11611 7.47045 1.06478C8.64378 1.01222 9.01655 1 12.0049 1C14.992 1 15.366 1.01344 16.5442 1.06844C17.7127 1.11978 18.512 1.30922 19.2123 1.58056C19.9458 1.8571 20.6105 2.28953 21.1605 2.848C21.7221 3.39746 22.1564 4.06329 22.4328 4.79867ZM20.5837 18.4925C20.7352 18.105 20.9148 17.5245 20.9625 16.4513C21.0152 15.2914 21.0273 14.9456 21.0273 12.011C21.0273 9.07523 21.0138 8.72812 20.9625 7.56701C20.9148 6.49635 20.7352 5.91212 20.5837 5.5259C20.4077 5.04851 20.1275 4.61636 19.7635 4.2609C19.4103 3.89668 18.9765 3.61678 18.4985 3.44201C18.1123 3.29045 17.533 3.11078 16.4575 3.06312C15.3012 3.01057 14.9529 2.99835 12.0134 2.99835C9.07765 2.99835 8.72932 3.01178 7.5682 3.0619C6.49754 3.11078 5.91332 3.29045 5.52587 3.44078C5.0492 3.61678 4.61899 3.89545 4.26209 4.26212C3.89299 4.61412 3.61309 5.04923 3.43832 5.5259C3.28675 5.91212 3.10587 6.49145 3.05942 7.56701C3.00687 8.72323 2.99465 9.07523 2.99465 12.011C2.99465 14.9456 3.00687 15.2939 3.0582 16.455C3.10709 17.5245 3.28675 18.1098 3.43709 18.4962C3.61351 18.9733 3.8941 19.4049 4.25842 19.7598C4.61258 20.1249 5.04458 20.4053 5.5222 20.58C5.90842 20.7303 6.48899 20.9112 7.56332 20.9588C8.72075 21.0102 9.07275 21.0225 12.0085 21.0225C14.9443 21.0225 15.2927 21.0102 16.4538 20.9588C17.5232 20.9112 18.1087 20.7303 18.4948 20.58C19.4543 20.21 20.213 19.4517 20.5837 18.4925Z" fill="url(#paint0_linear_2653_26767)"/>
<path fill-rule="evenodd" clip-rule="evenodd" d="M6.5 12C6.5 8.964 8.964 6.5 12 6.5C15.036 6.5 17.5 8.964 17.5 12C17.5 15.036 15.036 17.5 12 17.5C8.964 17.5 6.5 15.036 6.5 12ZM8.83153 13.8113C9.48996 14.9291 10.7031 15.6016 12 15.5677C13.934 15.517 15.4755 13.9347 15.4755 12C15.4755 10.0653 13.934 8.48295 12 8.43232C10.7031 8.39838 9.48996 9.07085 8.83153 10.1887C8.17309 11.3065 8.17309 12.6935 8.83153 13.8113Z" fill="url(#paint1_linear_2653_26767)"/>
<path d="M19.4518 6.44022C19.4518 7.2165 18.8224 7.84578 18.0461 7.84578C17.27 7.84578 16.6406 7.2165 16.6406 6.44022C16.6406 5.66396 17.27 5.03467 18.0461 5.03467C18.8224 5.03467 19.4518 5.66396 19.4518 6.44022Z" fill="#BB31A2"/>
<defs>
<linearGradient id="paint0_linear_2653_26767" x1="12.9594" y1="37.2434" x2="33.3503" y2="11.1955" gradientUnits="userSpaceOnUse">
<stop stop-color="#FFC107"/>
<stop offset="0.507" stop-color="#EE50AF"/>
<stop offset="1" stop-color="#8D3FE3"/>
</linearGradient>
<linearGradient id="paint1_linear_2653_26767" x1="12.3208" y1="23.5111" x2="21.2421" y2="12.6494" gradientUnits="userSpaceOnUse">
<stop stop-color="#FFC107"/>
<stop offset="0.507" stop-color="#F63D96"/>
<stop offset="1" stop-color="#9C27B0"/>
</linearGradient>
</defs>
</svg>
