<svg width="24" height="24" viewBox="0 0 24 24" fill="none" xmlns="http://www.w3.org/2000/svg">
<path d="M22.5418 6.6615C22.4161 6.1473 22.1704 5.67848 21.8291 5.3019C21.4877 4.92532 21.0628 4.65416 20.5968 4.51552C18.8799 4 12 4 12 4C12 4 5.11821 4 3.40501 4.50752C2.93792 4.64649 2.51225 4.91873 2.17081 5.29685C1.82937 5.67497 1.58421 6.14564 1.45999 6.6615C0.999999 8.55372 1 12.504 1 12.504C1 12.504 0.999999 16.4543 1.45999 18.3465C1.58532 18.8609 1.83097 19.3299 2.17234 19.7066C2.5137 20.0832 2.93879 20.3542 3.40501 20.4925C5.12002 21 12 21 12 21C12 21 18.8818 21 20.5968 20.4925C21.0628 20.3539 21.4877 20.0827 21.8291 19.7061C22.1704 19.3295 22.4161 18.8607 22.5418 18.3465C23 16.4543 23 12.504 23 12.504C23 12.504 22.9946 8.55372 22.5418 6.6615Z" fill="#DADADA"/>
<path d="M9.55469 16.439L15.6658 12.647L9.55469 8.85498V16.439Z" fill="white"/>
</svg>
