<svg width="24" height="24" viewBox="0 0 24 24" fill="none" xmlns="http://www.w3.org/2000/svg">
<g clip-path="url(#clip0_2653_26763)">
<path d="M9.79367 9.45065V8.51568C9.48796 8.46384 9.17888 8.43613 8.86896 8.43166C5.87081 8.42451 3.21712 10.4866 2.31683 13.5222C1.41654 16.5577 2.47937 19.8614 4.94021 21.6786C3.09668 19.5843 2.58464 16.5362 3.63315 13.8958C4.68166 11.2553 7.09449 9.51412 9.79367 9.45155V9.45065Z" fill="#25F4EE"/>
<path d="M9.95912 20.0456C11.635 20.0429 13.0128 18.6413 13.0861 16.8644V1.0038H15.8165C15.7609 0.672179 15.7339 0.336089 15.7373 0H12.0031V15.8454C11.9408 17.6313 10.5596 19.0471 8.87608 19.0498C8.37246 19.0454 7.8781 18.914 7.43175 18.6664C8.0179 19.5289 8.95777 20.0411 9.95996 20.0465L9.95912 20.0456Z" fill="#25F4EE"/>
<path d="M20.9176 6.38578V5.50443C19.9129 5.50443 18.93 5.1898 18.0938 4.59985C18.8273 5.50533 19.8185 6.13192 20.9176 6.38578Z" fill="#25F4EE"/>
<path d="M18.0946 4.60044C17.2701 3.60379 16.8162 2.32379 16.8162 0.997314H15.8199C16.0801 2.47843 16.9029 3.78167 18.0946 4.60044Z" fill="#FE2C55"/>
<path d="M8.86856 12.3956C7.43012 12.4036 6.18117 13.4495 5.84009 14.9324C5.49817 16.4153 6.1517 17.9545 7.42422 18.666C6.73448 17.655 6.63679 16.3196 7.17241 15.2086C7.7072 14.0975 8.78434 13.3985 9.96002 13.3994C10.2733 13.4039 10.5849 13.4548 10.8847 13.5531V9.52096C10.579 9.4727 10.2699 9.44677 9.96002 9.44409H9.79411V12.51C9.49261 12.4242 9.181 12.3858 8.8694 12.3947L8.86856 12.3956Z" fill="#FE2C55"/>
<path d="M20.9119 6.38786V9.45378C19.0516 9.4502 17.24 8.8254 15.7334 7.66786V15.7242C15.7258 19.7447 12.6527 22.9993 8.8646 22.9993C7.45817 23.0019 6.08542 22.5416 4.93585 21.6808C6.85433 23.8708 9.83984 24.5912 12.4624 23.498C15.0849 22.4048 16.8089 19.7188 16.8097 16.7289V8.6949C18.3214 9.84439 20.1354 10.4612 21.9958 10.4576V6.50942C21.632 6.50853 21.269 6.46741 20.9128 6.38696L20.9119 6.38786Z" fill="#FE2C55"/>
<path d="M15.7345 15.7227V7.66637C17.2462 8.81676 19.0602 9.43352 20.9206 9.42905V6.36313C19.8216 6.11642 18.8278 5.49787 18.0892 4.60044C16.8967 3.78167 16.0739 2.47933 15.8145 0.997314H13.0841V16.865C13.0294 18.2809 12.1359 19.5046 10.8583 19.914C9.5807 20.3234 8.19784 19.8291 7.41462 18.6822C6.14209 17.9707 5.48856 16.4315 5.83048 14.9486C6.17241 13.4657 7.42051 12.4199 8.85895 12.4118C9.17224 12.4145 9.48384 12.4664 9.78366 12.5656V9.49966C7.06933 9.54882 4.63796 11.2945 3.58693 13.952C2.53589 16.6085 3.06225 19.6735 4.9302 21.7651C6.09072 22.5973 7.46599 23.0282 8.86653 22.9996C12.6546 22.9996 15.7269 19.745 15.7353 15.7245L15.7345 15.7227Z" fill="black"/>
</g>
<defs>
<clipPath id="clip0_2653_26763">
<rect width="20" height="24" fill="white" transform="translate(2)"/>
</clipPath>
</defs>
</svg>
