<svg width="24" height="24" viewBox="0 0 24 24" fill="none" xmlns="http://www.w3.org/2000/svg">
<path d="M18.6 1H5.4C2.96995 1 1 2.96995 1 5.4V18.6C1 21.0301 2.96995 23 5.4 23H18.6C21.0301 23 23 21.0301 23 18.6V5.4C23 2.96995 21.0301 1 18.6 1Z" fill="#32D757"/>
<path fill-rule="evenodd" clip-rule="evenodd" d="M12.3045 15.8492C11.2926 15.8492 10.4707 14.9872 10.4707 13.9237C10.4707 12.8611 11.2926 11.9992 12.3045 11.9992C13.3165 11.9992 14.1374 12.8611 14.1374 13.9237C14.1374 14.9872 13.3165 15.8492 12.3045 15.8492ZM9.80358 10.3475V5.58252H7.41523V18.1033H9.83488V17.1222C9.83488 17.1222 10.5497 18.4158 12.3538 18.4158C12.3538 18.4158 16.5819 18.2601 16.5819 13.7439C16.5819 13.7439 16.4254 9.16509 12.3538 9.16509C12.3538 9.16509 11.0171 9.16509 9.80358 10.3475Z" fill="white"/>
</svg>
